<svg xmlns="http://www.w3.org/2000/svg"
  viewBox="0 0 420 420"
  role="img"
  aria-label="うるおす">
  <rect width="420" height="420" rx="72" fill="#7F82AE"/>
  <path d="M 219.51 348.55 L 216.51 348.84 L 213.47 349.01 L 210.42 349.08 L 207.35 349.10 L 204.28 349.09 L 201.20 349.09 L 198.14 349.07 L 195.09 349.01 L 192.05 348.86 L 189.05 348.58 L 186.07 348.14 L 183.10 347.62 L 180.13 347.10 L 177.18 346.50 L 174.29 345.70 L 171.46 344.71 L 168.66 343.60 L 165.87 342.42 L 163.08 341.21 L 160.30 339.99 L 157.53 338.71 L 154.81 337.38 L 152.13 335.97 L 149.51 334.46 L 146.98 332.84 L 144.54 331.09 L 142.16 329.25 L 139.82 327.35 L 137.49 325.45 L 135.18 323.55 L 132.98 321.57 L 130.90 319.47 L 128.87 317.29 L 126.89 315.04 L 124.98 312.73 L 123.17 310.35 L 121.45 307.92 L 119.81 305.44 L 118.23 302.92 L 116.69 300.37 L 115.21 297.78 L 113.84 295.14 L 112.61 292.44 L 111.54 289.69 L 110.59 286.90 L 109.72 284.09 L 108.83 281.29 L 107.90 278.49 L 106.98 275.68 L 106.16 272.86 L 105.49 270.00 L 104.96 267.12 L 104.53 264.22 L 104.17 261.31 L 103.94 258.37 L 103.83 255.41 L 103.81 252.43 L 103.84 249.43 L 103.88 246.44 L 103.89 243.45 L 103.90 240.47 L 103.96 237.50 L 104.14 234.57 L 104.50 231.66 L 105.08 228.78 L 105.75 225.92 L 106.34 223.04 L 106.91 220.17 L 107.62 217.32 L 108.49 214.52 L 109.45 211.72 L 110.42 208.93 L 111.35 206.12 L 112.26 203.30 L 113.20 200.50 L 114.24 197.73 L 115.41 195.01 L 116.68 192.32 L 118.01 189.66 L 119.38 187.00 L 120.75 184.34 L 122.11 181.68 L 123.48 179.02 L 124.85 176.37 L 126.25 173.73 L 127.71 171.14 L 129.27 168.60 L 130.94 166.13 L 132.66 163.69 L 134.36 161.24 L 135.98 158.74 L 137.55 156.21 L 139.12 153.68 L 140.77 151.21 L 142.52 148.80 L 144.33 146.42 L 146.14 144.05 L 147.91 141.65 L 149.65 139.23 L 151.41 136.83 L 153.26 134.49 L 155.19 132.21 L 157.12 129.92 L 158.97 127.59 L 160.77 125.21 L 162.59 122.85 L 164.51 120.56 L 166.52 118.33 L 168.56 116.13 L 170.51 113.86 L 172.42 111.57 L 174.42 109.35 L 176.52 107.18 L 178.63 105.03 L 180.69 102.85 L 182.68 100.60 L 184.61 98.32 L 186.56 96.06 L 188.59 93.86 L 190.70 91.73 L 192.88 89.62 L 195.14 87.54 L 197.57 85.67 L 200.31 84.36 L 203.28 83.85 L 206.16 84.25 L 208.79 85.48 L 211.23 87.29 L 213.54 89.37 L 215.77 91.50 L 217.96 93.62 L 220.09 95.74 L 222.18 97.88 L 224.23 100.04 L 226.24 102.24 L 228.22 104.48 L 230.18 106.77 L 232.20 109.01 L 234.27 111.19 L 236.29 113.39 L 238.26 115.64 L 240.23 117.89 L 242.17 120.17 L 244.06 122.48 L 245.92 124.81 L 247.78 127.15 L 249.66 129.47 L 251.55 131.78 L 253.43 134.09 L 255.29 136.43 L 257.11 138.78 L 258.91 141.16 L 260.69 143.55 L 262.47 145.94 L 264.24 148.34 L 266.00 150.75 L 267.75 153.17 L 269.48 155.59 L 271.18 158.03 L 272.87 160.49 L 274.52 162.97 L 276.14 165.47 L 277.72 167.99 L 279.27 170.54 L 280.77 173.11 L 282.23 175.71 L 283.66 178.34 L 285.06 180.98 L 286.42 183.63 L 287.76 186.30 L 289.07 188.98 L 290.36 191.67 L 291.62 194.36 L 292.84 197.07 L 294.02 199.79 L 295.15 202.53 L 296.23 205.28 L 297.24 208.05 L 298.20 210.83 L 299.09 213.63 L 299.95 216.45 L 300.75 219.28 L 301.42 222.13 L 301.98 225.01 L 302.44 227.91 L 302.86 230.81 L 303.32 233.71 L 303.78 236.60 L 304.11 239.52 L 304.26 242.46 L 304.34 245.43 L 304.41 248.42 L 304.44 251.42 L 304.38 254.40 L 304.19 257.36 L 303.83 260.28 L 303.30 263.15 L 302.71 266.02 L 302.12 268.89 L 301.53 271.76 L 300.90 274.63 L 300.23 277.48 L 299.48 280.31 L 298.62 283.13 L 297.66 285.92 L 296.58 288.69 L 295.41 291.42 L 294.15 294.12 L 292.81 296.77 L 291.39 299.37 L 289.89 301.94 L 288.32 304.47 L 286.67 306.96 L 284.95 309.41 L 283.17 311.81 L 281.34 314.16 L 279.43 316.44 L 277.43 318.67 L 275.32 320.83 L 273.12 322.93 L 270.86 324.96 L 268.56 326.93 L 266.24 328.82 L 263.86 330.65 L 261.43 332.39 L 258.92 334.05 L 256.34 335.62 L 253.71 337.11 L 251.02 338.51 L 248.29 339.84 L 245.52 341.10 L 242.72 342.28 L 239.91 343.39 L 237.07 344.42 L 234.20 345.37 L 231.31 346.20 L 228.39 346.93 L 225.44 347.57 L 222.49 348.12 Z M 215.92 329.79 L 218.35 329.36 L 220.77 328.81 L 223.17 328.19 L 225.55 327.51 L 227.93 326.79 L 230.30 326.05 L 232.65 325.26 L 234.99 324.41 L 237.30 323.48 L 239.58 322.48 L 241.83 321.40 L 244.04 320.24 L 246.20 319.01 L 248.32 317.70 L 250.39 316.32 L 252.40 314.87 L 254.36 313.36 L 256.26 311.78 L 258.11 310.14 L 259.91 308.44 L 261.66 306.69 L 263.36 304.90 L 265.00 303.05 L 266.60 301.16 L 268.13 299.23 L 269.61 297.26 L 271.01 295.24 L 272.35 293.18 L 273.61 291.08 L 274.79 288.94 L 275.89 286.76 L 276.92 284.55 L 277.88 282.31 L 278.78 280.05 L 279.62 277.77 L 280.42 275.47 L 281.16 273.16 L 281.85 270.84 L 282.46 268.50 L 282.96 266.14 L 283.32 263.76 L 283.55 261.35 L 283.67 258.92 L 283.71 256.47 L 283.72 254.02 L 283.72 251.56 L 283.71 249.11 L 283.71 246.65 L 283.70 244.19 L 283.70 241.73 L 283.69 239.28 L 283.65 236.83 L 283.50 234.41 L 283.17 232.02 L 282.60 229.68 L 281.86 227.37 L 281.24 225.03 L 280.82 222.64 L 280.39 220.27 L 279.80 217.93 L 279.06 215.62 L 278.24 213.34 L 277.36 211.06 L 276.45 208.80 L 275.52 206.54 L 274.55 204.30 L 273.56 202.06 L 272.54 199.84 L 271.48 197.62 L 270.40 195.43 L 269.28 193.24 L 268.13 191.07 L 266.95 188.92 L 265.75 186.77 L 264.53 184.64 L 263.30 182.52 L 262.05 180.40 L 260.80 178.29 L 259.54 176.19 L 258.25 174.11 L 256.95 172.03 L 255.63 169.98 L 254.27 167.94 L 252.89 165.92 L 251.47 163.92 L 250.01 161.94 L 248.55 159.97 L 247.08 158.00 L 245.63 156.03 L 244.17 154.05 L 242.71 152.09 L 241.24 150.13 L 239.75 148.18 L 238.25 146.24 L 236.73 144.31 L 235.19 142.40 L 233.64 140.49 L 232.06 138.60 L 230.47 136.72 L 228.87 134.85 L 227.27 132.98 L 225.68 131.11 L 224.10 129.24 L 222.52 127.37 L 220.90 125.51 L 219.23 123.67 L 217.55 121.84 L 215.88 120.01 L 214.28 118.17 L 212.73 116.32 L 211.16 114.45 L 209.51 112.56 L 207.70 110.68 L 205.76 109.08 L 203.67 108.27 L 201.59 108.63 L 199.76 109.96 L 198.11 111.87 L 196.53 113.99 L 194.92 115.96 L 193.28 117.76 L 191.62 119.48 L 189.95 121.22 L 188.29 123.05 L 186.65 124.93 L 185.01 126.82 L 183.36 128.68 L 181.73 130.50 L 180.13 132.34 L 178.57 134.22 L 177.07 136.16 L 175.57 138.12 L 174.06 140.07 L 172.51 141.98 L 170.94 143.87 L 169.37 145.75 L 167.81 147.65 L 166.30 149.57 L 164.81 151.53 L 163.35 153.50 L 161.91 155.49 L 160.49 157.49 L 159.09 159.50 L 157.70 161.52 L 156.32 163.55 L 154.94 165.58 L 153.57 167.61 L 152.20 169.65 L 150.83 171.68 L 149.47 173.72 L 148.13 175.78 L 146.81 177.84 L 145.52 179.92 L 144.26 182.03 L 143.04 184.15 L 141.85 186.30 L 140.69 188.46 L 139.56 190.64 L 138.45 192.84 L 137.36 195.04 L 136.29 197.25 L 135.22 199.46 L 134.18 201.68 L 133.17 203.91 L 132.19 206.15 L 131.26 208.40 L 130.39 210.67 L 129.59 212.96 L 128.88 215.27 L 128.24 217.60 L 127.66 219.95 L 127.11 222.31 L 126.56 224.66 L 126.01 227.01 L 125.46 229.36 L 124.98 231.72 L 124.58 234.10 L 124.27 236.50 L 123.98 238.90 L 123.64 241.28 L 123.26 243.66 L 122.98 246.07 L 122.86 248.52 L 122.91 250.99 L 123.13 253.44 L 123.50 255.84 L 124.01 258.19 L 124.43 260.53 L 124.52 262.97 L 124.55 265.44 L 124.98 267.81 L 125.78 270.10 L 126.46 272.43 L 127.01 274.79 L 127.73 277.10 L 128.64 279.35 L 129.68 281.56 L 130.75 283.76 L 131.79 285.97 L 132.80 288.20 L 133.83 290.40 L 134.95 292.56 L 136.20 294.64 L 137.58 296.65 L 139.06 298.61 L 140.63 300.51 L 142.27 302.36 L 143.96 304.18 L 145.69 305.96 L 147.45 307.72 L 149.24 309.45 L 151.06 311.13 L 152.92 312.77 L 154.82 314.36 L 156.77 315.90 L 158.77 317.36 L 160.82 318.76 L 162.92 320.09 L 165.07 321.33 L 167.27 322.48 L 169.52 323.53 L 171.81 324.49 L 174.15 325.34 L 176.52 326.09 L 178.92 326.75 L 181.33 327.36 L 183.74 327.94 L 186.15 328.51 L 188.56 329.06 L 190.97 329.55 L 193.41 329.94 L 195.89 330.21 L 198.39 330.39 L 200.90 330.48 L 203.43 330.50 L 205.95 330.49 L 208.47 330.43 L 210.97 330.31 L 213.45 330.10 Z M 309.49 139.31 L 307.95 139.64 L 306.37 139.77 L 304.77 139.72 L 303.17 139.48 L 301.61 139.06 L 300.09 138.47 L 298.66 137.72 L 297.32 136.80 L 296.12 135.75 L 295.05 134.57 L 294.12 133.30 L 293.36 131.97 L 292.75 130.58 L 292.31 129.12 L 292.04 127.59 L 291.95 126.02 L 292.03 124.46 L 292.30 122.93 L 292.77 121.47 L 293.43 120.11 L 294.26 118.82 L 295.24 117.59 L 296.36 116.43 L 297.59 115.37 L 298.92 114.44 L 300.33 113.67 L 301.80 113.10 L 303.33 112.75 L 304.89 112.61 L 306.47 112.67 L 308.04 112.91 L 309.61 113.31 L 311.12 113.86 L 312.55 114.56 L 313.85 115.43 L 314.99 116.46 L 315.99 117.62 L 316.88 118.91 L 317.67 120.28 L 318.34 121.73 L 318.84 123.23 L 319.12 124.77 L 319.20 126.32 L 319.07 127.87 L 318.76 129.41 L 318.28 130.90 L 317.63 132.34 L 316.83 133.71 L 315.89 134.98 L 314.82 136.14 L 313.63 137.17 L 312.34 138.06 L 310.96 138.77 Z M 213.61 291.13 L 212.04 291.35 L 210.47 291.53 L 208.88 291.66 L 207.30 291.75 L 205.70 291.81 L 204.11 291.84 L 202.51 291.84 L 200.92 291.81 L 199.33 291.75 L 197.75 291.66 L 196.17 291.53 L 194.59 291.36 L 193.03 291.14 L 191.47 290.87 L 189.93 290.55 L 188.39 290.18 L 186.87 289.76 L 185.37 289.31 L 183.88 288.81 L 182.41 288.28 L 180.95 287.71 L 179.51 287.11 L 178.08 286.48 L 176.67 285.81 L 175.26 285.11 L 173.88 284.37 L 172.51 283.60 L 171.16 282.80 L 169.82 281.96 L 168.51 281.09 L 167.22 280.19 L 165.95 279.26 L 164.71 278.29 L 163.50 277.29 L 162.31 276.25 L 161.15 275.19 L 160.03 274.09 L 158.93 272.96 L 157.88 271.80 L 156.85 270.60 L 155.87 269.38 L 154.92 268.12 L 154.01 266.83 L 153.17 265.51 L 152.45 264.15 L 151.88 262.77 L 151.52 261.36 L 151.40 259.91 L 151.58 258.43 L 152.05 256.97 L 152.78 255.58 L 153.75 254.33 L 154.94 253.26 L 156.31 252.44 L 157.81 251.86 L 159.40 251.54 L 161.00 251.47 L 162.58 251.66 L 164.07 252.10 L 165.44 252.80 L 166.67 253.71 L 167.75 254.80 L 168.74 255.99 L 169.74 257.19 L 170.78 258.35 L 171.87 259.47 L 172.99 260.56 L 174.15 261.60 L 175.35 262.61 L 176.58 263.58 L 177.84 264.52 L 179.13 265.42 L 180.45 266.28 L 181.80 267.10 L 183.17 267.89 L 184.56 268.63 L 185.98 269.32 L 187.42 269.97 L 188.87 270.56 L 190.35 271.10 L 191.85 271.59 L 193.37 272.01 L 194.90 272.37 L 196.45 272.67 L 198.01 272.90 L 199.58 273.07 L 201.16 273.18 L 202.74 273.22 L 204.32 273.21 L 205.91 273.13 L 207.49 273.00 L 209.06 272.80 L 210.63 272.55 L 212.18 272.24 L 213.72 271.87 L 215.25 271.45 L 216.75 270.97 L 218.24 270.44 L 219.70 269.86 L 221.15 269.23 L 222.57 268.54 L 223.96 267.81 L 225.33 267.03 L 226.67 266.20 L 227.98 265.33 L 229.26 264.42 L 230.51 263.47 L 231.72 262.47 L 232.92 261.45 L 234.08 260.39 L 235.22 259.30 L 236.33 258.19 L 237.41 257.05 L 238.48 255.89 L 239.52 254.72 L 240.60 253.62 L 241.79 252.68 L 243.14 251.99 L 244.61 251.58 L 246.18 251.45 L 247.77 251.58 L 249.34 251.98 L 250.84 252.63 L 252.20 253.50 L 253.37 254.60 L 254.33 255.88 L 255.06 257.30 L 255.54 258.79 L 255.77 260.32 L 255.73 261.84 L 255.41 263.29 L 254.83 264.66 L 254.05 265.98 L 253.12 267.24 L 252.11 268.46 L 251.07 269.66 L 250.00 270.83 L 248.91 271.98 L 247.80 273.11 L 246.66 274.20 L 245.51 275.27 L 244.33 276.32 L 243.13 277.34 L 241.91 278.33 L 240.67 279.29 L 239.40 280.22 L 238.12 281.12 L 236.81 281.99 L 235.48 282.83 L 234.14 283.64 L 232.78 284.42 L 231.39 285.16 L 229.99 285.87 L 228.58 286.54 L 227.15 287.18 L 225.70 287.78 L 224.23 288.35 L 222.75 288.87 L 221.26 289.36 L 219.76 289.80 L 218.24 290.20 L 216.70 290.56 L 215.16 290.87 Z" fill="#FDF4E9" fill-rule="evenodd"/>
</svg>
