<svg xmlns="http://www.w3.org/2000/svg"
  viewBox="0 0 420 420"
  role="img"
  aria-label="ながす">
  <rect width="420" height="420" rx="72" fill="#679BB1"/>
  <path d="M 209.18 269.40 L 205.36 269.91 L 201.49 269.37 L 197.61 268.69 L 193.75 268.25 L 189.91 267.74 L 186.10 266.87 L 182.35 265.68 L 178.66 264.24 L 175.06 262.63 L 171.54 260.89 L 168.13 259.00 L 164.80 256.96 L 161.57 254.74 L 158.47 252.33 L 155.56 249.70 L 152.92 246.84 L 150.55 243.76 L 148.35 240.55 L 146.18 237.31 L 143.95 234.09 L 141.92 230.80 L 140.45 227.23 L 139.28 223.54 L 138.19 219.83 L 137.20 216.11 L 136.33 212.36 L 135.64 208.56 L 135.14 204.72 L 134.86 200.83 L 134.77 196.93 L 134.90 193.05 L 135.22 189.20 L 135.74 185.38 L 136.42 181.60 L 137.26 177.85 L 138.25 174.12 L 139.40 170.40 L 140.71 166.72 L 142.15 163.09 L 143.73 159.54 L 145.44 156.05 L 147.23 152.61 L 149.08 149.19 L 150.96 145.78 L 152.86 142.38 L 154.81 139.00 L 156.86 135.68 L 158.99 132.43 L 161.18 129.22 L 163.37 126.00 L 165.53 122.76 L 167.67 119.50 L 169.84 116.26 L 172.11 113.11 L 174.51 110.05 L 176.98 107.05 L 179.48 104.06 L 181.94 101.05 L 184.36 98.00 L 186.77 94.95 L 189.18 91.90 L 191.59 88.86 L 193.99 85.79 L 196.65 82.96 L 200.11 81.02 L 203.99 80.46 L 207.54 81.65 L 210.50 84.26 L 213.23 87.16 L 215.86 90.06 L 218.42 92.96 L 220.94 95.90 L 223.46 98.87 L 225.95 101.87 L 228.42 104.90 L 230.85 107.94 L 233.25 110.99 L 235.61 114.07 L 237.94 117.17 L 240.24 120.31 L 242.50 123.49 L 244.70 126.70 L 246.85 129.95 L 248.97 133.21 L 251.08 136.48 L 253.19 139.75 L 255.31 143.01 L 257.38 146.31 L 259.38 149.65 L 261.28 153.05 L 263.07 156.52 L 264.74 160.04 L 266.28 163.62 L 267.69 167.24 L 268.99 170.91 L 270.17 174.60 L 271.24 178.32 L 272.19 182.06 L 272.95 185.83 L 273.48 189.64 L 273.72 193.51 L 273.67 197.44 L 273.48 201.37 L 273.34 205.24 L 273.03 209.06 L 272.23 212.83 L 271.07 216.57 L 269.87 220.24 L 268.75 223.86 L 267.48 227.49 L 265.91 231.11 L 264.07 234.61 L 261.95 237.90 L 259.60 240.96 L 257.06 243.86 L 254.39 246.71 L 251.66 249.59 L 248.79 252.35 L 245.67 254.65 L 242.16 256.18 L 238.31 256.98 L 234.40 257.52 L 230.62 258.09 L 226.83 258.11 L 222.90 257.10 L 219.27 256.29 L 215.40 255.39 L 211.62 253.89 L 210.29 251.78 L 214.08 250.21 L 217.92 249.36 L 221.72 248.23 L 225.32 246.65 L 228.68 244.68 L 231.93 242.49 L 235.15 240.25 L 238.31 237.93 L 241.17 235.33 L 243.67 232.36 L 245.95 229.21 L 248.05 225.92 L 249.96 222.52 L 251.65 219.01 L 253.10 215.40 L 254.30 211.70 L 255.21 207.93 L 255.84 204.11 L 256.15 200.26 L 256.17 196.39 L 255.90 192.53 L 255.35 188.70 L 254.55 184.91 L 253.55 181.17 L 252.42 177.48 L 251.12 173.85 L 249.64 170.25 L 248.00 166.71 L 246.24 163.21 L 244.39 159.76 L 242.48 156.38 L 240.50 153.04 L 238.45 149.74 L 236.34 146.47 L 234.18 143.23 L 231.99 140.01 L 229.80 136.78 L 227.62 133.56 L 225.42 130.36 L 223.17 127.19 L 220.87 124.05 L 218.50 120.96 L 216.08 117.91 L 213.65 114.88 L 211.23 111.86 L 208.85 108.77 L 206.26 105.79 L 202.99 104.27 L 199.83 106.64 L 197.23 109.62 L 194.89 112.68 L 192.51 115.74 L 190.14 118.83 L 187.81 121.95 L 185.56 125.13 L 183.39 128.36 L 181.23 131.60 L 179.06 134.83 L 176.84 138.02 L 174.61 141.22 L 172.44 144.45 L 170.38 147.75 L 168.45 151.14 L 166.60 154.57 L 164.79 158.02 L 162.98 161.46 L 161.20 164.90 L 159.48 168.38 L 157.88 171.93 L 156.44 175.56 L 155.25 179.27 L 154.38 183.03 L 153.83 186.83 L 153.18 190.61 L 152.40 194.40 L 152.11 198.29 L 152.35 202.18 L 153.03 205.97 L 153.94 209.70 L 154.92 213.44 L 156.06 217.14 L 157.44 220.76 L 159.09 224.27 L 161.01 227.64 L 163.19 230.86 L 165.65 233.89 L 168.35 236.72 L 171.27 239.33 L 174.40 241.69 L 177.70 243.81 L 181.15 245.68 L 184.72 247.31 L 188.38 248.70 L 192.11 249.82 L 195.94 250.67 L 199.83 251.29 L 203.37 252.62 L 206.45 255.08 L 209.82 257.08 L 213.48 258.59 L 217.22 259.83 L 220.85 260.86 L 224.78 261.30 L 229.10 261.10 L 231.25 262.90 L 228.25 265.24 L 224.51 266.55 L 220.75 267.60 L 216.94 268.29 L 213.02 268.38 Z M 313.25 252.25 L 311.68 252.66 L 310.04 252.88 L 308.38 252.93 L 306.71 252.78 L 305.09 252.45 L 303.55 251.94 L 302.12 251.24 L 300.85 250.35 L 299.73 249.29 L 298.77 248.09 L 297.97 246.75 L 297.33 245.32 L 296.84 243.81 L 296.49 242.24 L 296.30 240.63 L 296.27 239.02 L 296.41 237.42 L 296.73 235.85 L 297.22 234.34 L 297.91 232.91 L 298.80 231.58 L 299.87 230.37 L 301.10 229.31 L 302.46 228.42 L 303.92 227.71 L 305.44 227.20 L 307.00 226.91 L 308.59 226.82 L 310.17 226.93 L 311.72 227.22 L 313.24 227.69 L 314.69 228.32 L 316.06 229.11 L 317.32 230.05 L 318.45 231.12 L 319.44 232.33 L 320.26 233.66 L 320.89 235.09 L 321.31 236.63 L 321.52 238.25 L 321.53 239.92 L 321.37 241.59 L 321.06 243.23 L 320.61 244.80 L 320.03 246.28 L 319.29 247.64 L 318.38 248.87 L 317.30 249.96 L 316.08 250.89 L 314.73 251.66 Z M 252.51 313.44 L 250.25 313.81 L 247.94 313.95 L 245.58 314.03 L 243.21 314.06 L 240.89 313.87 L 238.65 313.41 L 236.41 312.96 L 234.11 312.72 L 231.79 312.59 L 229.48 312.42 L 227.18 312.20 L 224.89 311.91 L 222.62 311.55 L 220.37 311.11 L 218.13 310.61 L 215.90 310.05 L 213.68 309.45 L 211.46 308.83 L 209.24 308.19 L 207.02 307.53 L 204.82 306.85 L 202.61 306.15 L 200.42 305.41 L 198.24 304.65 L 196.06 303.86 L 193.90 303.04 L 191.75 302.20 L 189.60 301.32 L 187.47 300.42 L 185.35 299.49 L 183.24 298.54 L 181.13 297.56 L 179.04 296.56 L 176.95 295.54 L 174.86 294.51 L 172.78 293.47 L 170.69 292.44 L 168.61 291.40 L 166.52 290.38 L 164.42 289.38 L 162.32 288.39 L 160.21 287.44 L 158.08 286.52 L 155.94 285.64 L 153.78 284.80 L 151.61 284.01 L 149.42 283.27 L 147.22 282.56 L 145.01 281.88 L 142.80 281.22 L 140.58 280.59 L 138.35 280.03 L 136.11 279.57 L 133.84 279.24 L 131.55 278.96 L 129.26 278.61 L 126.95 278.30 L 124.64 278.17 L 122.32 278.29 L 120.01 278.59 L 117.72 279.00 L 115.47 279.47 L 113.24 279.93 L 110.99 280.37 L 108.72 280.79 L 106.46 281.31 L 104.27 282.00 L 102.11 282.82 L 99.97 283.68 L 97.81 284.53 L 95.66 285.37 L 93.53 286.29 L 91.47 287.32 L 89.48 288.52 L 87.50 289.69 L 85.43 290.58 L 83.19 290.95 L 80.88 290.74 L 78.68 289.98 L 76.78 288.68 L 75.33 286.87 L 74.42 284.71 L 74.07 282.41 L 74.34 280.16 L 75.22 278.12 L 76.58 276.31 L 78.27 274.72 L 80.14 273.35 L 82.11 272.16 L 84.14 271.10 L 86.20 270.09 L 88.29 269.11 L 90.39 268.16 L 92.51 267.23 L 94.64 266.33 L 96.79 265.46 L 98.95 264.62 L 101.11 263.81 L 103.28 263.04 L 105.48 262.36 L 107.71 261.82 L 109.98 261.47 L 112.31 261.29 L 114.62 261.11 L 116.86 260.72 L 119.09 260.25 L 121.39 259.91 L 123.72 259.71 L 126.07 259.66 L 128.41 259.78 L 130.71 260.06 L 132.97 260.45 L 135.23 260.84 L 137.50 261.18 L 139.77 261.54 L 142.04 261.95 L 144.30 262.42 L 146.54 262.95 L 148.76 263.53 L 150.97 264.17 L 153.16 264.86 L 155.34 265.61 L 157.51 266.39 L 159.67 267.21 L 161.82 268.07 L 163.96 268.95 L 166.09 269.85 L 168.22 270.77 L 170.34 271.71 L 172.45 272.67 L 174.55 273.65 L 176.65 274.63 L 178.75 275.62 L 180.86 276.61 L 182.96 277.59 L 185.07 278.55 L 187.19 279.49 L 189.32 280.41 L 191.45 281.32 L 193.58 282.23 L 195.70 283.14 L 197.83 284.04 L 199.97 284.93 L 202.12 285.79 L 204.28 286.62 L 206.45 287.42 L 208.64 288.18 L 210.83 288.90 L 213.04 289.59 L 215.26 290.23 L 217.48 290.83 L 219.71 291.39 L 221.95 291.92 L 224.19 292.42 L 226.44 292.91 L 228.69 293.37 L 230.97 293.72 L 233.28 293.90 L 235.58 294.10 L 237.82 294.49 L 240.07 294.96 L 242.38 295.38 L 244.71 295.61 L 247.02 295.52 L 249.30 295.18 L 251.57 294.73 L 253.85 294.32 L 256.14 294.08 L 258.44 293.89 L 260.71 293.56 L 262.96 293.09 L 265.23 292.70 L 267.51 292.41 L 269.78 292.05 L 272.02 291.47 L 274.22 290.78 L 276.42 290.06 L 278.60 289.29 L 280.77 288.49 L 282.92 287.64 L 285.06 286.76 L 287.19 285.84 L 289.30 284.88 L 291.40 283.87 L 293.48 282.83 L 295.54 281.75 L 297.59 280.64 L 299.61 279.50 L 301.61 278.33 L 303.59 277.13 L 305.54 275.90 L 307.44 274.60 L 309.28 273.21 L 311.08 271.75 L 313.01 270.53 L 315.18 269.79 L 317.49 269.54 L 319.81 269.77 L 321.99 270.50 L 323.90 271.74 L 325.39 273.50 L 326.32 275.66 L 326.55 277.93 L 326.13 280.12 L 325.17 282.13 L 323.83 283.96 L 322.20 285.62 L 320.43 287.12 L 318.58 288.50 L 316.68 289.80 L 314.77 291.08 L 312.85 292.36 L 310.93 293.63 L 308.99 294.90 L 307.04 296.14 L 305.07 297.35 L 303.07 298.53 L 301.05 299.67 L 299.00 300.76 L 296.92 301.80 L 294.81 302.79 L 292.69 303.73 L 290.55 304.62 L 288.38 305.46 L 286.21 306.25 L 284.02 306.99 L 281.82 307.69 L 279.61 308.35 L 277.40 308.98 L 275.18 309.59 L 272.95 310.18 L 270.72 310.76 L 268.49 311.33 L 266.25 311.84 L 263.99 312.27 L 261.70 312.51 L 259.36 312.53 L 257.01 312.52 L 254.73 312.85 Z M 252.49 364.58 L 250.16 365.01 L 247.81 365.33 L 245.45 365.33 L 243.09 365.02 L 240.76 364.56 L 238.45 364.11 L 236.13 363.80 L 233.76 363.69 L 231.38 363.62 L 229.03 363.41 L 226.71 363.06 L 224.41 362.60 L 222.12 362.08 L 219.84 361.53 L 217.55 360.96 L 215.27 360.38 L 213.00 359.75 L 210.74 359.08 L 208.50 358.36 L 206.27 357.60 L 204.05 356.80 L 201.84 355.96 L 199.64 355.09 L 197.45 354.18 L 195.28 353.25 L 193.11 352.30 L 190.95 351.32 L 188.80 350.33 L 186.65 349.32 L 184.51 348.30 L 182.37 347.27 L 180.23 346.24 L 178.10 345.21 L 175.97 344.18 L 173.83 343.15 L 171.69 342.13 L 169.54 341.12 L 167.39 340.13 L 165.23 339.15 L 163.05 338.19 L 160.87 337.26 L 158.68 336.37 L 156.47 335.52 L 154.25 334.73 L 152.02 334.00 L 149.77 333.33 L 147.50 332.73 L 145.23 332.18 L 142.94 331.64 L 140.64 331.09 L 138.33 330.55 L 136.02 330.07 L 133.69 329.72 L 131.34 329.57 L 128.99 329.63 L 126.64 329.83 L 124.29 330.14 L 121.96 330.48 L 119.64 330.85 L 117.33 331.23 L 115.02 331.63 L 112.71 332.08 L 110.41 332.58 L 108.14 333.19 L 105.91 333.93 L 103.75 334.83 L 101.65 335.90 L 99.57 337.06 L 97.47 338.23 L 95.30 339.34 L 93.08 340.25 L 90.83 340.77 L 88.58 340.73 L 86.39 339.97 L 84.41 338.58 L 82.84 336.72 L 81.86 334.57 L 81.54 332.28 L 81.83 330.00 L 82.70 327.88 L 84.10 326.05 L 85.88 324.49 L 87.89 323.14 L 89.96 321.90 L 92.06 320.76 L 94.17 319.70 L 96.31 318.72 L 98.48 317.81 L 100.67 316.95 L 102.88 316.14 L 105.12 315.37 L 107.39 314.66 L 109.67 314.03 L 111.96 313.49 L 114.26 313.06 L 116.57 312.72 L 118.89 312.42 L 121.22 312.11 L 123.56 311.76 L 125.91 311.38 L 128.26 311.07 L 130.61 310.95 L 132.95 311.12 L 135.28 311.59 L 137.61 312.04 L 139.96 312.27 L 142.30 312.51 L 144.61 312.91 L 146.89 313.44 L 149.16 314.04 L 151.43 314.67 L 153.70 315.31 L 155.96 315.95 L 158.22 316.63 L 160.47 317.34 L 162.70 318.09 L 164.93 318.88 L 167.13 319.72 L 169.33 320.59 L 171.51 321.50 L 173.68 322.45 L 175.84 323.44 L 177.98 324.46 L 180.11 325.50 L 182.24 326.56 L 184.37 327.63 L 186.49 328.69 L 188.62 329.74 L 190.76 330.77 L 192.91 331.78 L 195.06 332.77 L 197.23 333.73 L 199.40 334.66 L 201.58 335.57 L 203.77 336.46 L 205.97 337.33 L 208.18 338.17 L 210.40 338.98 L 212.63 339.76 L 214.87 340.50 L 217.12 341.20 L 219.38 341.85 L 221.65 342.46 L 223.93 343.01 L 226.23 343.50 L 228.54 343.94 L 230.86 344.31 L 233.19 344.62 L 235.53 344.85 L 237.89 345.04 L 240.26 345.18 L 242.63 345.28 L 245.02 345.36 L 247.41 345.39 L 249.80 345.40 L 252.19 345.36 L 254.58 345.28 L 256.97 345.16 L 259.34 344.99 L 261.70 344.78 L 264.04 344.52 L 266.37 344.20 L 268.68 343.82 L 270.97 343.37 L 273.25 342.85 L 275.52 342.26 L 277.78 341.61 L 280.04 340.92 L 282.30 340.23 L 284.56 339.53 L 286.81 338.82 L 289.06 338.08 L 291.29 337.31 L 293.51 336.49 L 295.71 335.62 L 297.88 334.69 L 300.02 333.68 L 302.14 332.62 L 304.25 331.52 L 306.33 330.39 L 308.41 329.23 L 310.48 328.08 L 312.55 326.92 L 314.61 325.76 L 316.62 324.54 L 318.58 323.24 L 320.47 321.83 L 322.35 320.39 L 324.28 319.03 L 326.32 317.84 L 328.50 316.97 L 330.83 316.57 L 333.18 316.75 L 335.38 317.61 L 337.27 319.11 L 338.70 321.07 L 339.54 323.28 L 339.72 325.54 L 339.26 327.74 L 338.21 329.74 L 336.60 331.44 L 334.68 332.90 L 332.77 334.33 L 330.93 335.77 L 329.07 337.22 L 327.20 338.65 L 325.31 340.07 L 323.40 341.45 L 321.46 342.79 L 319.48 344.09 L 317.47 345.32 L 315.42 346.50 L 313.34 347.62 L 311.23 348.70 L 309.10 349.74 L 306.95 350.74 L 304.79 351.71 L 302.62 352.66 L 300.44 353.59 L 298.26 354.50 L 296.07 355.37 L 293.86 356.23 L 291.65 357.05 L 289.43 357.85 L 287.19 358.61 L 284.95 359.34 L 282.69 359.99 L 280.41 360.57 L 278.11 361.05 L 275.80 361.49 L 273.50 361.95 L 271.22 362.51 L 268.96 363.16 L 266.66 363.64 L 264.28 363.76 L 261.87 363.70 L 259.49 363.73 L 257.14 363.90 L 254.82 364.19 Z" fill="#FDF4E9" fill-rule="evenodd"/>
</svg>
