<svg xmlns="http://www.w3.org/2000/svg"
  viewBox="0 0 420 420"
  role="img"
  aria-label="ぬくめる">
  <rect width="420" height="420" rx="72" fill="#D2854D"/>
  <path d="M 220.91 333.69 L 218.08 334.00 L 215.21 334.16 L 212.33 334.20 L 209.43 334.18 L 206.53 334.16 L 203.62 334.17 L 200.72 334.19 L 197.83 334.16 L 194.97 334.02 L 192.14 333.73 L 189.34 333.26 L 186.54 332.72 L 183.74 332.25 L 180.93 331.78 L 178.16 331.15 L 175.44 330.33 L 172.75 329.38 L 170.08 328.36 L 167.42 327.32 L 164.77 326.27 L 162.14 325.14 L 159.56 323.93 L 157.04 322.58 L 154.58 321.13 L 152.18 319.59 L 149.84 317.98 L 147.55 316.32 L 145.31 314.59 L 143.10 312.80 L 140.91 310.97 L 138.79 309.15 L 136.90 307.16 L 135.04 305.08 L 133.16 302.97 L 131.28 300.83 L 129.45 298.68 L 127.70 296.50 L 126.07 294.22 L 124.57 291.83 L 123.17 289.39 L 121.85 286.91 L 120.61 284.39 L 119.45 281.84 L 118.35 279.27 L 117.31 276.68 L 116.32 274.06 L 115.39 271.44 L 114.55 268.79 L 113.90 266.11 L 113.42 263.39 L 112.98 260.66 L 112.49 257.94 L 112.07 255.22 L 111.79 252.48 L 111.40 249.74 L 110.78 247.00 L 110.34 244.27 L 110.50 241.52 L 111.02 238.77 L 111.50 236.03 L 111.85 233.30 L 112.23 230.58 L 112.70 227.85 L 113.10 225.12 L 113.49 222.38 L 114.05 219.68 L 114.87 217.03 L 115.74 214.39 L 116.51 211.73 L 117.23 209.05 L 117.95 206.37 L 118.73 203.72 L 119.62 201.09 L 120.62 198.50 L 121.73 195.95 L 122.95 193.43 L 124.26 190.93 L 125.62 188.45 L 126.98 185.97 L 128.27 183.47 L 129.47 180.93 L 130.54 178.36 L 131.69 175.84 L 133.15 173.48 L 134.76 171.18 L 136.28 168.82 L 137.70 166.40 L 139.09 163.95 L 140.48 161.51 L 141.95 159.12 L 143.54 156.81 L 145.21 154.55 L 146.93 152.31 L 148.62 150.07 L 150.28 147.80 L 151.92 145.52 L 153.57 143.25 L 155.24 140.99 L 156.94 138.75 L 158.66 136.53 L 160.41 134.33 L 162.19 132.15 L 163.96 129.96 L 165.73 127.77 L 167.48 125.58 L 169.29 123.42 L 171.20 121.33 L 173.10 119.24 L 174.93 117.09 L 176.71 114.92 L 178.46 112.71 L 180.20 110.51 L 181.99 108.34 L 183.89 106.24 L 185.89 104.24 L 187.85 102.19 L 189.62 99.96 L 191.34 97.72 L 193.21 95.66 L 195.21 93.70 L 197.30 91.74 L 199.45 89.72 L 201.69 87.85 L 204.10 86.49 L 206.74 85.95 L 209.57 86.40 L 212.26 87.62 L 214.55 89.36 L 216.47 91.44 L 218.17 93.67 L 219.92 95.87 L 221.83 97.95 L 223.83 99.98 L 225.83 102.00 L 227.76 104.07 L 229.56 106.23 L 231.30 108.44 L 233.13 110.58 L 235.04 112.67 L 236.90 114.79 L 238.70 116.95 L 240.50 119.12 L 242.34 121.25 L 244.22 123.36 L 246.07 125.49 L 247.84 127.68 L 249.49 129.95 L 251.10 132.25 L 252.76 134.52 L 254.57 136.67 L 256.43 138.80 L 258.14 141.03 L 259.76 143.32 L 261.41 145.59 L 263.10 147.84 L 264.78 150.09 L 266.43 152.37 L 268.05 154.66 L 269.62 156.99 L 271.17 159.33 L 272.68 161.69 L 274.17 164.07 L 275.64 166.47 L 277.08 168.87 L 278.51 171.29 L 279.92 173.72 L 281.31 176.16 L 282.67 178.62 L 284.02 181.08 L 285.35 183.56 L 286.66 186.05 L 287.94 188.56 L 289.19 191.08 L 290.39 193.62 L 291.53 196.18 L 292.61 198.75 L 293.62 201.35 L 294.54 203.96 L 295.38 206.60 L 296.17 209.25 L 296.92 211.91 L 297.67 214.58 L 298.42 217.24 L 299.14 219.92 L 299.79 222.60 L 300.35 225.31 L 300.77 228.05 L 301.12 230.80 L 301.47 233.53 L 301.83 236.24 L 302.14 238.98 L 302.34 241.79 L 302.40 244.62 L 302.32 247.45 L 302.09 250.25 L 301.70 252.97 L 301.27 255.67 L 300.93 258.40 L 300.64 261.17 L 300.18 263.90 L 299.41 266.57 L 298.53 269.20 L 297.71 271.83 L 296.87 274.47 L 295.95 277.09 L 294.97 279.70 L 293.94 282.30 L 292.90 284.88 L 291.78 287.41 L 290.40 289.83 L 288.83 292.18 L 287.32 294.56 L 285.83 296.94 L 284.26 299.26 L 282.50 301.44 L 280.53 303.49 L 278.44 305.45 L 276.34 307.41 L 274.29 309.40 L 272.26 311.38 L 270.19 313.31 L 268.01 315.13 L 265.72 316.83 L 263.38 318.45 L 261.03 320.03 L 258.66 321.53 L 256.15 322.82 L 253.52 323.91 L 250.87 325.00 L 248.25 326.17 L 245.65 327.35 L 243.03 328.46 L 240.35 329.45 L 237.62 330.30 L 234.86 331.03 L 232.08 331.65 L 229.29 332.17 L 226.50 332.66 L 223.71 333.19 Z M 220.25 316.51 L 222.53 315.95 L 224.79 315.33 L 227.08 314.79 L 229.37 314.28 L 231.62 313.67 L 233.84 312.94 L 236.04 312.12 L 238.22 311.22 L 240.38 310.28 L 242.52 309.29 L 244.65 308.25 L 246.74 307.16 L 248.79 306.01 L 250.79 304.80 L 252.75 303.51 L 254.64 302.15 L 256.48 300.73 L 258.29 299.25 L 260.08 297.75 L 261.85 296.21 L 263.57 294.66 L 265.24 293.07 L 266.82 291.40 L 268.31 289.65 L 269.71 287.82 L 271.04 285.92 L 272.30 283.97 L 273.49 281.97 L 274.61 279.94 L 275.68 277.88 L 276.69 275.80 L 277.64 273.71 L 278.53 271.59 L 279.36 269.45 L 280.13 267.29 L 280.84 265.12 L 281.49 262.93 L 282.07 260.72 L 282.55 258.49 L 282.93 256.25 L 283.17 253.98 L 283.27 251.70 L 283.26 249.39 L 283.20 247.08 L 283.13 244.75 L 283.10 242.43 L 283.14 240.11 L 283.20 237.79 L 283.24 235.48 L 283.20 233.19 L 283.04 230.91 L 282.71 228.65 L 282.27 226.42 L 281.75 224.21 L 281.18 222.00 L 280.57 219.81 L 279.94 217.62 L 279.27 215.43 L 278.56 213.26 L 277.82 211.09 L 277.04 208.93 L 276.21 206.79 L 275.33 204.66 L 274.41 202.55 L 273.45 200.45 L 272.45 198.37 L 271.43 196.29 L 270.38 194.23 L 269.31 192.18 L 268.22 190.13 L 267.13 188.09 L 266.02 186.05 L 264.90 184.03 L 263.76 182.02 L 262.60 180.02 L 261.41 178.04 L 260.19 176.07 L 258.95 174.13 L 257.68 172.20 L 256.38 170.28 L 255.07 168.37 L 253.76 166.47 L 252.43 164.57 L 251.11 162.67 L 249.80 160.77 L 248.49 158.86 L 247.17 156.96 L 245.85 155.06 L 244.51 153.18 L 243.14 151.32 L 241.74 149.48 L 240.30 147.66 L 238.85 145.86 L 237.41 144.05 L 236.00 142.21 L 234.62 140.35 L 233.23 138.50 L 231.81 136.68 L 230.32 134.90 L 228.79 133.16 L 227.28 131.39 L 225.85 129.57 L 224.49 127.70 L 223.12 125.82 L 221.69 124.00 L 220.16 122.26 L 218.57 120.57 L 216.97 118.90 L 215.41 117.20 L 213.91 115.41 L 212.47 113.46 L 210.92 111.64 L 209.11 110.28 L 207.12 109.79 L 205.05 110.28 L 203.09 111.46 L 201.34 113.06 L 199.75 114.90 L 198.26 116.78 L 196.79 118.58 L 195.32 120.32 L 193.82 122.03 L 192.28 123.75 L 190.72 125.50 L 189.22 127.29 L 187.76 129.09 L 186.29 130.89 L 184.82 132.67 L 183.36 134.46 L 181.93 136.28 L 180.51 138.11 L 179.11 139.95 L 177.71 141.80 L 176.30 143.63 L 174.88 145.46 L 173.45 147.28 L 172.02 149.10 L 170.61 150.93 L 169.20 152.76 L 167.80 154.60 L 166.42 156.46 L 165.06 158.33 L 163.71 160.21 L 162.37 162.10 L 161.05 164.01 L 159.75 165.92 L 158.47 167.84 L 157.20 169.77 L 155.94 171.71 L 154.69 173.65 L 153.45 175.59 L 152.22 177.55 L 150.99 179.50 L 149.77 181.46 L 148.54 183.43 L 147.32 185.40 L 146.12 187.38 L 144.95 189.38 L 143.82 191.40 L 142.75 193.44 L 141.73 195.51 L 140.79 197.61 L 139.92 199.73 L 139.10 201.88 L 138.31 204.04 L 137.55 206.21 L 136.80 208.38 L 136.05 210.54 L 135.28 212.69 L 134.49 214.82 L 133.70 216.96 L 132.95 219.12 L 132.29 221.31 L 131.77 223.53 L 131.38 225.77 L 131.07 228.03 L 130.80 230.29 L 130.54 232.55 L 130.25 234.80 L 129.92 237.05 L 129.62 239.30 L 129.42 241.59 L 129.35 243.90 L 129.39 246.22 L 129.55 248.53 L 129.81 250.81 L 130.16 253.05 L 130.55 255.28 L 130.95 257.50 L 131.36 259.74 L 131.85 261.96 L 132.42 264.17 L 133.06 266.37 L 133.76 268.54 L 134.50 270.70 L 135.27 272.85 L 136.11 274.96 L 137.03 277.05 L 138.04 279.10 L 139.16 281.11 L 140.38 283.08 L 141.68 284.99 L 143.06 286.84 L 144.50 288.65 L 145.97 290.42 L 147.46 292.17 L 149.00 293.87 L 150.65 295.46 L 152.42 296.94 L 154.28 298.34 L 156.14 299.75 L 157.99 301.18 L 159.85 302.60 L 161.74 303.98 L 163.67 305.31 L 165.64 306.57 L 167.66 307.76 L 169.73 308.87 L 171.84 309.89 L 173.99 310.84 L 176.17 311.70 L 178.39 312.47 L 180.64 313.16 L 182.90 313.77 L 185.19 314.32 L 187.47 314.84 L 189.76 315.34 L 192.05 315.82 L 194.33 316.28 L 196.63 316.67 L 198.95 316.98 L 201.30 317.15 L 203.68 317.22 L 206.07 317.22 L 208.47 317.18 L 210.87 317.14 L 213.25 317.11 L 215.61 317.04 L 217.95 316.86 Z M 216.51 299.61 L 214.99 299.84 L 213.45 299.98 L 211.90 300.06 L 210.33 300.10 L 208.74 300.15 L 207.15 300.21 L 205.55 300.26 L 203.96 300.26 L 202.39 300.19 L 200.84 300.05 L 199.31 299.83 L 197.79 299.54 L 196.29 299.19 L 194.80 298.76 L 193.33 298.28 L 191.87 297.74 L 190.43 297.14 L 189.01 296.49 L 187.62 295.78 L 186.25 295.01 L 184.92 294.19 L 183.63 293.32 L 182.38 292.39 L 181.17 291.42 L 180.02 290.39 L 178.92 289.31 L 177.88 288.18 L 176.89 287.01 L 175.95 285.79 L 175.07 284.54 L 174.23 283.26 L 173.44 281.94 L 172.69 280.60 L 171.98 279.23 L 171.31 277.85 L 170.68 276.45 L 170.08 275.04 L 169.51 273.63 L 168.98 272.20 L 168.51 270.77 L 168.09 269.33 L 167.75 267.87 L 167.50 266.40 L 167.35 264.91 L 167.30 263.40 L 167.30 261.88 L 167.33 260.35 L 167.33 258.83 L 167.33 257.30 L 167.33 255.79 L 167.37 254.27 L 167.47 252.77 L 167.65 251.28 L 167.89 249.80 L 168.19 248.33 L 168.55 246.87 L 168.96 245.41 L 169.42 243.97 L 169.93 242.54 L 170.48 241.12 L 171.06 239.71 L 171.68 238.31 L 172.33 236.93 L 173.00 235.55 L 173.69 234.18 L 174.40 232.83 L 175.14 231.48 L 175.89 230.15 L 176.65 228.83 L 177.44 227.51 L 178.24 226.21 L 179.06 224.92 L 179.89 223.64 L 180.74 222.37 L 181.60 221.11 L 182.47 219.85 L 183.35 218.61 L 184.25 217.37 L 185.15 216.14 L 186.06 214.91 L 186.98 213.68 L 187.90 212.46 L 188.84 211.24 L 189.78 210.02 L 190.73 208.82 L 191.70 207.64 L 192.68 206.47 L 193.67 205.30 L 194.65 204.14 L 195.61 202.95 L 196.55 201.75 L 197.45 200.50 L 198.33 199.24 L 199.23 197.99 L 200.19 196.76 L 201.22 195.58 L 202.37 194.48 L 203.63 193.52 L 204.99 192.80 L 206.41 192.42 L 207.86 192.46 L 209.28 192.87 L 210.61 193.59 L 211.79 194.54 L 212.85 195.66 L 213.81 196.91 L 214.71 198.22 L 215.60 199.54 L 216.50 200.82 L 217.44 202.03 L 218.39 203.20 L 219.36 204.35 L 220.34 205.50 L 221.31 206.65 L 222.29 207.83 L 223.26 209.02 L 224.23 210.23 L 225.19 211.44 L 226.15 212.65 L 227.10 213.86 L 228.05 215.06 L 228.99 216.26 L 229.92 217.47 L 230.83 218.69 L 231.74 219.92 L 232.62 221.16 L 233.48 222.42 L 234.33 223.69 L 235.16 224.98 L 235.97 226.28 L 236.76 227.59 L 237.54 228.91 L 238.30 230.24 L 239.03 231.58 L 239.74 232.94 L 240.43 234.30 L 241.09 235.67 L 241.73 237.06 L 242.34 238.45 L 242.92 239.85 L 243.47 241.27 L 243.99 242.69 L 244.48 244.12 L 244.93 245.56 L 245.34 247.01 L 245.73 248.47 L 246.08 249.94 L 246.39 251.41 L 246.67 252.90 L 246.90 254.38 L 247.08 255.86 L 247.19 257.33 L 247.21 258.78 L 247.15 260.23 L 247.04 261.68 L 246.89 263.16 L 246.71 264.66 L 246.49 266.16 L 246.22 267.66 L 245.90 269.15 L 245.53 270.62 L 245.10 272.06 L 244.61 273.48 L 244.06 274.88 L 243.47 276.26 L 242.83 277.62 L 242.14 278.98 L 241.42 280.33 L 240.67 281.67 L 239.88 283.00 L 239.04 284.30 L 238.16 285.58 L 237.24 286.82 L 236.27 288.03 L 235.25 289.18 L 234.18 290.29 L 233.06 291.33 L 231.88 292.31 L 230.64 293.23 L 229.35 294.07 L 228.02 294.87 L 226.66 295.62 L 225.26 296.34 L 223.85 297.03 L 222.42 297.68 L 220.97 298.29 L 219.50 298.82 L 218.02 299.27 Z M 220.90 361.97 L 218.98 362.25 L 217.05 362.45 L 215.09 362.58 L 213.12 362.64 L 211.14 362.65 L 209.15 362.63 L 207.16 362.59 L 205.18 362.54 L 203.19 362.50 L 201.22 362.47 L 199.26 362.45 L 197.32 362.37 L 195.39 362.19 L 193.49 361.85 L 191.59 361.39 L 189.67 361.09 L 187.69 361.07 L 185.71 361.09 L 183.77 360.94 L 181.85 360.67 L 179.94 360.32 L 178.03 359.98 L 176.11 359.70 L 174.18 359.48 L 172.24 359.28 L 170.32 359.00 L 168.42 358.60 L 166.55 358.10 L 164.67 357.58 L 162.79 357.13 L 160.87 356.81 L 158.96 356.49 L 157.10 355.98 L 155.29 355.30 L 153.46 354.63 L 151.63 354.02 L 149.78 353.42 L 147.93 352.84 L 146.09 352.25 L 144.25 351.64 L 142.41 351.01 L 140.58 350.34 L 138.76 349.65 L 136.95 348.91 L 135.15 348.15 L 133.35 347.36 L 131.57 346.54 L 129.81 345.70 L 128.06 344.83 L 126.32 343.95 L 124.60 343.04 L 122.90 342.11 L 121.20 341.17 L 119.52 340.20 L 117.84 339.22 L 116.18 338.22 L 114.52 337.20 L 112.87 336.17 L 111.23 335.12 L 109.59 334.06 L 107.96 332.98 L 106.32 331.89 L 104.75 330.75 L 103.37 329.48 L 102.34 327.96 L 101.75 326.16 L 101.53 324.18 L 101.53 322.21 L 101.83 320.36 L 102.63 318.72 L 103.98 317.35 L 105.77 316.32 L 107.69 315.80 L 109.56 315.86 L 111.38 316.36 L 113.15 317.14 L 114.87 318.05 L 116.57 319.00 L 118.25 319.99 L 119.91 320.99 L 121.57 322.00 L 123.24 323.01 L 124.91 323.99 L 126.61 324.94 L 128.34 325.85 L 130.08 326.73 L 131.85 327.58 L 133.63 328.40 L 135.42 329.19 L 137.22 329.96 L 139.02 330.72 L 140.82 331.45 L 142.63 332.17 L 144.44 332.88 L 146.25 333.58 L 148.07 334.28 L 149.88 334.98 L 151.70 335.68 L 153.52 336.37 L 155.35 337.05 L 157.19 337.69 L 159.04 338.30 L 160.90 338.86 L 162.78 339.35 L 164.67 339.77 L 166.58 340.13 L 168.49 340.47 L 170.39 340.83 L 172.28 341.27 L 174.16 341.76 L 176.04 342.22 L 177.95 342.57 L 179.90 342.73 L 181.86 342.83 L 183.78 343.09 L 185.68 343.48 L 187.58 343.79 L 189.52 344.01 L 191.47 344.18 L 193.42 344.34 L 195.36 344.56 L 197.27 344.82 L 199.18 345.10 L 201.09 345.36 L 203.03 345.57 L 205.01 345.68 L 207.01 345.70 L 209.01 345.63 L 211.00 345.49 L 212.93 345.26 L 214.82 344.97 L 216.71 344.62 L 218.62 344.29 L 220.57 344.13 L 222.55 344.08 L 224.50 343.94 L 226.41 343.61 L 228.30 343.23 L 230.21 342.90 L 232.14 342.67 L 234.10 342.60 L 236.07 342.54 L 238.01 342.33 L 239.90 341.90 L 241.77 341.36 L 243.64 340.83 L 245.53 340.40 L 247.43 340.08 L 249.35 339.78 L 251.25 339.42 L 253.14 338.95 L 255.01 338.36 L 256.86 337.71 L 258.69 337.04 L 260.52 336.37 L 262.34 335.71 L 264.15 335.03 L 265.96 334.36 L 267.77 333.67 L 269.58 332.97 L 271.39 332.25 L 273.21 331.52 L 275.03 330.76 L 276.85 329.99 L 278.66 329.19 L 280.44 328.38 L 282.21 327.54 L 283.94 326.68 L 285.64 325.80 L 287.31 324.89 L 288.97 323.95 L 290.63 322.98 L 292.28 321.98 L 293.96 320.93 L 295.66 319.84 L 297.38 318.76 L 299.13 317.75 L 300.90 316.89 L 302.69 316.26 L 304.50 315.93 L 306.33 315.97 L 308.16 316.45 L 309.91 317.37 L 311.42 318.65 L 312.52 320.22 L 313.08 321.99 L 313.10 323.87 L 312.67 325.76 L 311.88 327.57 L 310.83 329.19 L 309.57 330.60 L 308.13 331.85 L 306.57 332.97 L 304.92 334.00 L 303.23 334.98 L 301.52 335.96 L 299.83 336.95 L 298.17 337.96 L 296.51 338.98 L 294.86 339.99 L 293.21 341.00 L 291.54 341.99 L 289.85 342.94 L 288.14 343.85 L 286.39 344.73 L 284.63 345.57 L 282.84 346.38 L 281.04 347.15 L 279.23 347.90 L 277.42 348.63 L 275.60 349.34 L 273.78 350.02 L 271.95 350.69 L 270.12 351.34 L 268.29 351.98 L 266.45 352.60 L 264.60 353.22 L 262.75 353.82 L 260.89 354.41 L 259.03 354.98 L 257.16 355.53 L 255.29 356.04 L 253.40 356.52 L 251.51 356.97 L 249.62 357.36 L 247.71 357.71 L 245.81 358.04 L 243.90 358.37 L 241.99 358.70 L 240.08 359.05 L 238.17 359.40 L 236.26 359.74 L 234.34 360.05 L 232.43 360.35 L 230.52 360.67 L 228.60 360.96 L 226.65 361.15 L 224.71 361.32 L 222.79 361.61 Z" fill="#FDF4E9" fill-rule="evenodd"/>
</svg>
