<svg xmlns="http://www.w3.org/2000/svg" viewBox="0 0 420 420" role="img" aria-hidden="true"><defs><linearGradient id="g" x1="0" y1="0" x2="1" y2="1"><stop stop-color="#e0e2f0"/><stop offset="1" stop-color="#8792b0"/></linearGradient></defs><rect width="420" height="420" rx="82" fill="url(#g)"/><circle cx="210" cy="210" r="126" fill="#fffaf0" opacity=".14"/><path d="M210 72c42 58 92 104 92 168 0 54-42 98-92 98s-92-44-92-98c0-64 50-110 92-168Z" fill="#2f5b52" opacity=".78"/><path d="M168 264c28 26 58 26 86 0" fill="none" stroke="#f5ead4" stroke-width="16" stroke-linecap="round" opacity=".80"/><path d="M112 130c30 10 60 10 90 0M230 116c24 10 48 10 72 0" fill="none" stroke="#f5ead4" stroke-width="13" stroke-linecap="round" opacity=".56"/><circle cx="116" cy="294" r="14" fill="#f5ead4" opacity=".66"/><circle cx="318" cy="172" r="10" fill="#f5ead4" opacity=".56"/></svg>