<svg xmlns="http://www.w3.org/2000/svg" viewBox="0 0 420 420" role="img" aria-hidden="true"><defs><linearGradient id="g" x1="0" y1="0" x2="1" y2="1"><stop stop-color="#efdec9"/><stop offset="1" stop-color="#c28b59"/></linearGradient></defs><rect width="420" height="420" rx="82" fill="url(#g)"/><circle cx="210" cy="210" r="126" fill="#fffaf0" opacity=".14"/><circle cx="210" cy="210" r="104" fill="#f0d9a2" opacity=".20"/><path d="M210 68c42 56 94 104 94 168 0 54-42 98-94 98s-94-44-94-98c0-64 52-112 94-168Z" fill="#2f5b52" opacity=".78"/><path d="M210 154c20 28 44 52 44 84 0 26-20 48-44 48s-44-22-44-48c0-32 24-56 44-84Z" fill="#f5ead4" opacity=".86"/><path d="M102 342h216" stroke="#f5ead4" stroke-width="14" stroke-linecap="round" opacity=".72"/></svg>