<svg xmlns="http://www.w3.org/2000/svg"
  viewBox="0 0 420 420"
  role="img"
  aria-label="めぐらせる">
  <rect width="420" height="420" rx="72" fill="#869C5E"/>
  <path d="M 313.06 152.65 L 311.14 152.65 L 309.20 152.23 L 307.18 151.85 L 305.11 151.65 L 303.01 151.59 L 300.92 151.60 L 298.84 151.57 L 296.79 151.40 L 294.78 150.99 L 292.80 150.44 L 290.78 150.08 L 288.69 150.08 L 286.56 150.23 L 284.45 150.33 L 282.38 150.22 L 280.37 149.84 L 278.37 149.38 L 276.35 149.02 L 274.32 148.70 L 272.31 148.32 L 270.37 147.66 L 268.62 146.51 L 267.20 144.98 L 266.26 143.20 L 265.94 141.29 L 266.17 139.34 L 266.84 137.42 L 267.86 135.62 L 269.14 134.03 L 270.69 132.77 L 272.51 131.97 L 274.57 131.66 L 276.73 131.64 L 278.88 131.66 L 280.92 131.67 L 282.87 131.94 L 284.84 132.51 L 287.06 133.07 L 289.27 133.19 L 290.91 132.49 L 291.31 131.06 L 290.37 129.45 L 288.78 127.89 L 287.25 126.37 L 285.80 124.90 L 284.36 123.46 L 282.87 122.07 L 281.34 120.71 L 279.77 119.39 L 278.17 118.11 L 276.54 116.85 L 274.89 115.63 L 273.22 114.43 L 271.54 113.25 L 269.84 112.10 L 268.14 110.97 L 266.42 109.85 L 264.69 108.74 L 262.95 107.64 L 261.20 106.55 L 259.44 105.48 L 257.66 104.44 L 255.85 103.45 L 254.02 102.51 L 252.15 101.63 L 250.25 100.83 L 248.32 100.10 L 246.37 99.40 L 244.42 98.71 L 242.48 97.99 L 240.56 97.25 L 238.64 96.54 L 236.69 95.89 L 234.70 95.33 L 232.69 94.89 L 230.66 94.55 L 228.64 94.23 L 226.63 93.83 L 224.63 93.38 L 222.63 92.92 L 220.61 92.52 L 218.58 92.21 L 216.54 91.99 L 214.48 91.84 L 212.40 91.77 L 210.31 91.75 L 208.22 91.78 L 206.12 91.82 L 204.01 91.85 L 201.92 91.85 L 199.82 91.82 L 197.74 91.82 L 195.67 91.87 L 193.62 92.03 L 191.58 92.32 L 189.55 92.71 L 187.54 93.12 L 185.53 93.50 L 183.52 93.82 L 181.48 94.09 L 179.41 94.38 L 177.36 94.75 L 175.41 95.27 L 173.51 95.89 L 171.58 96.52 L 169.56 97.08 L 167.44 97.47 L 165.32 97.61 L 163.28 97.39 L 161.41 96.74 L 159.78 95.60 L 158.48 94.06 L 157.58 92.23 L 157.13 90.20 L 157.14 88.11 L 157.59 86.10 L 158.49 84.31 L 159.80 82.84 L 161.44 81.68 L 163.28 80.72 L 165.17 79.87 L 167.08 79.10 L 169.01 78.41 L 170.97 77.82 L 172.96 77.31 L 174.96 76.87 L 176.98 76.47 L 178.99 76.06 L 181.00 75.64 L 183.01 75.27 L 185.05 75.00 L 187.09 74.72 L 189.10 74.33 L 191.12 73.93 L 193.14 73.65 L 195.19 73.46 L 197.26 73.34 L 199.34 73.27 L 201.43 73.24 L 203.52 73.24 L 205.62 73.26 L 207.73 73.29 L 209.83 73.33 L 211.92 73.37 L 214.00 73.38 L 216.07 73.41 L 218.12 73.54 L 220.14 73.87 L 222.14 74.37 L 224.16 74.78 L 226.20 75.06 L 228.24 75.31 L 230.27 75.60 L 232.29 75.98 L 234.28 76.44 L 236.27 76.96 L 238.25 77.52 L 240.22 78.11 L 242.19 78.72 L 244.15 79.35 L 246.11 79.99 L 248.07 80.65 L 250.02 81.32 L 251.95 82.03 L 253.88 82.76 L 255.79 83.54 L 257.69 84.35 L 259.57 85.21 L 261.43 86.12 L 263.27 87.07 L 265.09 88.05 L 266.91 89.06 L 268.71 90.08 L 270.49 91.10 L 272.27 92.13 L 274.03 93.17 L 275.77 94.26 L 277.46 95.40 L 279.11 96.63 L 280.73 97.90 L 282.35 99.17 L 283.96 100.42 L 285.58 101.65 L 287.21 102.89 L 288.83 104.16 L 290.43 105.47 L 292.00 106.81 L 293.51 108.20 L 294.98 109.62 L 296.41 111.07 L 297.85 112.54 L 299.30 114.02 L 300.82 115.51 L 302.40 116.99 L 304.02 118.28 L 305.39 118.70 L 306.28 117.64 L 306.89 115.68 L 307.45 113.57 L 307.73 111.51 L 307.74 109.51 L 307.86 107.53 L 308.37 105.59 L 309.25 103.75 L 310.45 102.10 L 311.93 100.70 L 313.63 99.64 L 315.51 99.00 L 317.52 98.84 L 319.60 99.22 L 321.58 100.08 L 323.29 101.34 L 324.56 102.92 L 325.30 104.73 L 325.65 106.70 L 325.74 108.75 L 325.68 110.80 L 325.52 112.81 L 325.19 114.78 L 324.68 116.71 L 324.30 118.67 L 324.23 120.70 L 324.09 122.71 L 323.64 124.66 L 323.17 126.60 L 322.92 128.59 L 322.80 130.60 L 322.73 132.63 L 322.61 134.64 L 322.36 136.63 L 322.00 138.59 L 321.64 140.54 L 321.34 142.52 L 321.08 144.56 L 320.71 146.54 L 320.00 148.34 L 318.77 149.83 L 316.97 150.96 L 315.00 151.96 Z M 99.50 154.19 L 98.04 154.54 L 96.54 154.67 L 95.04 154.58 L 93.58 154.28 L 92.19 153.77 L 90.91 153.06 L 89.76 152.15 L 88.78 151.05 L 88.01 149.77 L 87.47 148.37 L 87.19 146.90 L 87.19 145.44 L 87.48 144.04 L 88.01 142.71 L 88.68 141.41 L 89.41 140.13 L 90.15 138.87 L 90.90 137.61 L 91.67 136.37 L 92.45 135.13 L 93.25 133.90 L 94.06 132.69 L 94.88 131.48 L 95.72 130.27 L 96.56 129.07 L 97.42 127.88 L 98.29 126.70 L 99.17 125.52 L 100.06 124.34 L 100.95 123.17 L 101.86 122.01 L 102.78 120.86 L 103.72 119.71 L 104.66 118.58 L 105.62 117.45 L 106.60 116.34 L 107.59 115.25 L 108.60 114.17 L 109.63 113.11 L 110.67 112.07 L 111.74 111.05 L 112.82 110.05 L 113.93 109.07 L 115.05 108.11 L 116.19 107.16 L 117.34 106.22 L 118.51 105.27 L 119.68 104.32 L 120.85 103.36 L 122.04 102.41 L 123.25 101.52 L 124.49 100.71 L 125.77 100.02 L 127.10 99.49 L 128.48 99.15 L 129.91 99.02 L 131.35 99.11 L 132.78 99.44 L 134.19 100.02 L 135.52 100.84 L 136.75 101.84 L 137.79 102.99 L 138.58 104.24 L 139.11 105.57 L 139.38 106.95 L 139.40 108.33 L 139.19 109.70 L 138.76 111.02 L 138.10 112.25 L 137.25 113.37 L 136.22 114.39 L 135.07 115.34 L 133.84 116.25 L 132.57 117.13 L 131.30 118.02 L 130.09 118.95 L 128.95 119.92 L 127.89 120.94 L 126.87 121.99 L 125.87 123.05 L 124.87 124.13 L 123.85 125.19 L 122.79 126.23 L 121.71 127.26 L 120.61 128.28 L 119.51 129.31 L 118.43 130.35 L 117.39 131.41 L 116.40 132.52 L 115.48 133.65 L 114.60 134.82 L 113.72 135.99 L 112.82 137.15 L 111.90 138.30 L 111.00 139.46 L 110.14 140.65 L 109.32 141.87 L 108.55 143.11 L 107.80 144.37 L 107.08 145.65 L 106.37 146.94 L 105.67 148.23 L 104.96 149.51 L 104.18 150.74 L 103.27 151.86 L 102.17 152.83 L 100.90 153.61 Z M 87.69 200.91 L 86.23 201.39 L 84.69 201.62 L 83.12 201.61 L 81.56 201.35 L 80.06 200.87 L 78.66 200.16 L 77.40 199.22 L 76.31 198.10 L 75.43 196.84 L 74.77 195.53 L 74.30 194.16 L 73.99 192.71 L 73.78 191.16 L 73.67 189.55 L 73.68 187.94 L 73.84 186.40 L 74.16 184.98 L 74.65 183.65 L 75.36 182.38 L 76.27 181.15 L 77.37 179.99 L 78.61 178.91 L 79.94 177.97 L 81.32 177.18 L 82.70 176.60 L 84.09 176.25 L 85.53 176.17 L 87.06 176.38 L 88.66 176.82 L 90.21 177.42 L 91.52 178.26 L 92.52 179.32 L 93.25 180.58 L 93.78 181.98 L 94.13 183.48 L 94.37 185.03 L 94.52 186.58 L 94.59 188.13 L 94.56 189.66 L 94.41 191.17 L 94.12 192.66 L 93.68 194.11 L 93.08 195.52 L 92.31 196.87 L 91.37 198.13 L 90.28 199.24 L 89.05 200.19 Z M 198.94 249.31 L 197.27 249.53 L 195.59 249.70 L 193.90 249.82 L 192.21 249.89 L 190.52 249.93 L 188.82 249.95 L 187.12 249.94 L 185.42 249.92 L 183.72 249.89 L 182.02 249.86 L 180.33 249.84 L 178.64 249.79 L 176.93 249.65 L 175.19 249.39 L 173.40 248.94 L 171.78 248.23 L 170.90 247.16 L 170.98 245.74 L 171.47 244.20 L 172.05 242.68 L 172.70 241.18 L 173.42 239.70 L 174.20 238.25 L 175.03 236.82 L 175.91 235.41 L 176.83 234.02 L 177.80 232.66 L 178.80 231.31 L 179.82 229.98 L 180.88 228.67 L 181.95 227.37 L 183.03 226.10 L 184.12 224.84 L 185.22 223.60 L 186.34 222.38 L 187.49 221.18 L 188.66 220.01 L 189.87 218.87 L 191.12 217.76 L 192.41 216.69 L 193.74 215.64 L 195.10 214.64 L 196.49 213.67 L 197.91 212.75 L 199.34 211.86 L 200.79 211.02 L 202.25 210.22 L 203.72 209.45 L 205.21 208.71 L 206.72 207.99 L 208.26 207.27 L 209.84 206.55 L 211.45 205.82 L 212.97 204.99 L 214.10 203.85 L 214.62 202.38 L 214.40 200.86 L 213.39 199.58 L 211.91 198.92 L 210.32 199.02 L 208.71 199.49 L 207.11 200.05 L 205.54 200.67 L 203.99 201.34 L 202.46 202.06 L 200.95 202.83 L 199.45 203.63 L 197.98 204.46 L 196.52 205.30 L 195.08 206.17 L 193.66 207.06 L 192.26 207.98 L 190.88 208.92 L 189.53 209.90 L 188.20 210.91 L 186.90 211.96 L 185.63 213.04 L 184.38 214.16 L 183.15 215.30 L 181.95 216.47 L 180.76 217.67 L 179.61 218.89 L 178.47 220.12 L 177.35 221.38 L 176.25 222.64 L 175.17 223.92 L 174.10 225.21 L 173.05 226.50 L 172.02 227.80 L 171.01 229.11 L 170.03 230.43 L 169.09 231.78 L 168.19 233.16 L 167.36 234.59 L 166.59 236.07 L 165.90 237.61 L 165.21 239.16 L 164.45 240.67 L 163.54 242.09 L 162.40 243.29 L 161.02 243.93 L 159.48 243.69 L 158.29 242.79 L 157.62 241.47 L 157.34 239.87 L 157.30 238.10 L 157.33 236.30 L 157.33 234.56 L 157.29 232.88 L 157.23 231.24 L 157.19 229.62 L 157.18 228.00 L 157.21 226.37 L 157.30 224.74 L 157.43 223.11 L 157.61 221.48 L 157.84 219.86 L 158.12 218.24 L 158.46 216.63 L 158.85 215.03 L 159.30 213.45 L 159.80 211.88 L 160.35 210.32 L 160.95 208.79 L 161.60 207.27 L 162.29 205.76 L 163.03 204.28 L 163.81 202.81 L 164.63 201.37 L 165.48 199.94 L 166.37 198.53 L 167.29 197.15 L 168.24 195.79 L 169.22 194.45 L 170.22 193.13 L 171.26 191.85 L 172.34 190.60 L 173.49 189.41 L 174.71 188.28 L 176.02 187.23 L 177.38 186.23 L 178.78 185.28 L 180.19 184.37 L 181.62 183.50 L 183.07 182.66 L 184.54 181.86 L 186.03 181.09 L 187.54 180.36 L 189.07 179.66 L 190.62 179.00 L 192.19 178.38 L 193.79 177.82 L 195.40 177.31 L 197.02 176.86 L 198.66 176.49 L 200.32 176.19 L 201.99 175.98 L 203.67 175.84 L 205.36 175.77 L 207.06 175.74 L 208.76 175.75 L 210.47 175.78 L 212.18 175.82 L 213.89 175.86 L 215.60 175.87 L 217.30 175.86 L 219.01 175.82 L 220.71 175.79 L 222.40 175.80 L 224.08 175.90 L 225.76 176.10 L 227.43 176.43 L 229.08 176.83 L 230.72 177.27 L 232.33 177.69 L 233.94 178.10 L 235.53 178.49 L 237.12 178.90 L 238.71 179.31 L 240.32 179.76 L 241.95 180.25 L 243.60 180.80 L 245.27 181.41 L 246.88 182.13 L 248.32 182.99 L 249.49 184.03 L 250.27 185.27 L 250.43 186.69 L 249.97 188.25 L 249.34 189.86 L 248.82 191.46 L 248.39 193.06 L 247.99 194.64 L 247.58 196.21 L 247.11 197.76 L 246.59 199.31 L 246.05 200.86 L 245.51 202.42 L 244.97 203.98 L 244.45 205.55 L 243.91 207.11 L 243.36 208.67 L 242.79 210.22 L 242.20 211.76 L 241.56 213.28 L 240.89 214.77 L 240.18 216.25 L 239.43 217.71 L 238.65 219.16 L 237.85 220.60 L 237.01 222.02 L 236.16 223.44 L 235.28 224.85 L 234.38 226.25 L 233.45 227.63 L 232.49 228.99 L 231.49 230.32 L 230.45 231.62 L 229.36 232.88 L 228.23 234.10 L 227.05 235.27 L 225.83 236.40 L 224.57 237.48 L 223.27 238.53 L 221.93 239.54 L 220.57 240.51 L 219.17 241.44 L 217.75 242.34 L 216.29 243.19 L 214.82 243.99 L 213.32 244.76 L 211.79 245.47 L 210.25 246.14 L 208.68 246.76 L 207.10 247.32 L 205.49 247.84 L 203.88 248.29 L 202.24 248.69 L 200.60 249.03 Z M 301.37 317.64 L 299.85 318.07 L 298.23 318.20 L 296.59 318.04 L 294.98 317.62 L 293.47 316.95 L 292.12 316.03 L 291.00 314.90 L 290.14 313.56 L 289.57 312.09 L 289.27 310.53 L 289.25 308.94 L 289.51 307.38 L 290.04 305.90 L 290.84 304.56 L 291.86 303.31 L 293.02 302.15 L 294.26 301.03 L 295.51 299.92 L 296.72 298.79 L 297.85 297.63 L 298.91 296.44 L 299.93 295.22 L 300.95 294.00 L 301.98 292.78 L 303.04 291.57 L 304.11 290.36 L 305.18 289.14 L 306.22 287.91 L 307.23 286.65 L 308.18 285.35 L 309.07 284.03 L 309.91 282.68 L 310.72 281.30 L 311.51 279.91 L 312.28 278.51 L 313.05 277.10 L 313.82 275.69 L 314.59 274.27 L 315.35 272.86 L 316.11 271.43 L 316.85 270.00 L 317.57 268.57 L 318.27 267.13 L 318.94 265.67 L 319.58 264.21 L 320.18 262.74 L 320.74 261.26 L 321.26 259.76 L 321.75 258.26 L 322.21 256.75 L 322.64 255.23 L 323.07 253.71 L 323.49 252.18 L 323.90 250.66 L 324.32 249.13 L 324.72 247.61 L 325.11 246.08 L 325.48 244.54 L 325.82 243.00 L 326.12 241.45 L 326.38 239.90 L 326.60 238.34 L 326.78 236.77 L 326.92 235.19 L 327.03 233.60 L 327.11 232.01 L 327.16 230.42 L 327.19 228.82 L 327.21 227.22 L 327.20 225.61 L 327.18 224.01 L 327.16 222.40 L 327.13 220.79 L 327.09 219.18 L 327.06 217.57 L 327.02 215.96 L 326.99 214.35 L 326.94 212.75 L 326.88 211.16 L 326.80 209.57 L 326.69 208.00 L 326.55 206.43 L 326.37 204.88 L 326.15 203.34 L 325.89 201.81 L 325.59 200.28 L 325.25 198.75 L 324.87 197.22 L 324.46 195.67 L 324.01 194.10 L 323.55 192.53 L 323.14 190.95 L 322.82 189.38 L 322.64 187.83 L 322.65 186.31 L 322.91 184.82 L 323.45 183.39 L 324.30 182.03 L 325.41 180.81 L 326.72 179.79 L 328.18 179.04 L 329.74 178.61 L 331.35 178.55 L 332.96 178.81 L 334.51 179.35 L 335.97 180.14 L 337.28 181.14 L 338.39 182.31 L 339.26 183.61 L 339.93 185.02 L 340.43 186.50 L 340.82 188.05 L 341.14 189.62 L 341.43 191.21 L 341.73 192.79 L 342.08 194.34 L 342.45 195.87 L 342.84 197.39 L 343.21 198.90 L 343.55 200.42 L 343.86 201.95 L 344.10 203.51 L 344.28 205.08 L 344.40 206.67 L 344.50 208.26 L 344.57 209.86 L 344.63 211.46 L 344.70 213.05 L 344.80 214.63 L 344.95 216.19 L 345.18 217.75 L 345.50 219.30 L 345.84 220.87 L 346.10 222.44 L 346.20 224.01 L 346.08 225.56 L 345.74 227.10 L 345.31 228.65 L 344.92 230.20 L 344.71 231.77 L 344.65 233.37 L 344.67 234.97 L 344.67 236.57 L 344.59 238.15 L 344.43 239.72 L 344.22 241.28 L 343.94 242.83 L 343.64 244.38 L 343.30 245.92 L 342.96 247.46 L 342.61 249.00 L 342.26 250.54 L 341.90 252.08 L 341.54 253.62 L 341.16 255.15 L 340.75 256.67 L 340.32 258.19 L 339.87 259.71 L 339.40 261.22 L 338.90 262.72 L 338.38 264.22 L 337.84 265.72 L 337.27 267.20 L 336.69 268.68 L 336.08 270.16 L 335.46 271.62 L 334.81 273.08 L 334.15 274.54 L 333.46 275.98 L 332.76 277.42 L 332.05 278.86 L 331.31 280.28 L 330.56 281.70 L 329.80 283.11 L 329.01 284.52 L 328.22 285.91 L 327.41 287.30 L 326.58 288.68 L 325.74 290.05 L 324.89 291.41 L 324.03 292.77 L 323.15 294.11 L 322.26 295.45 L 321.35 296.77 L 320.42 298.07 L 319.47 299.36 L 318.49 300.63 L 317.50 301.88 L 316.47 303.11 L 315.42 304.31 L 314.33 305.50 L 313.22 306.65 L 312.08 307.79 L 310.92 308.92 L 309.76 310.05 L 308.60 311.21 L 307.45 312.40 L 306.33 313.63 L 305.19 314.84 L 304.01 315.97 L 302.75 316.92 Z M 95.01 258.13 L 93.44 258.36 L 91.89 258.26 L 90.38 257.88 L 88.96 257.23 L 87.67 256.36 L 86.53 255.31 L 85.58 254.09 L 84.83 252.76 L 84.21 251.33 L 83.71 249.84 L 83.26 248.31 L 82.83 246.78 L 82.37 245.27 L 81.91 243.79 L 81.50 242.30 L 81.19 240.79 L 81.03 239.25 L 81.07 237.69 L 81.34 236.17 L 81.89 234.70 L 82.72 233.35 L 83.79 232.16 L 85.05 231.18 L 86.46 230.48 L 87.96 230.09 L 89.51 230.06 L 91.05 230.36 L 92.53 230.95 L 93.90 231.79 L 95.10 232.84 L 96.09 234.05 L 96.83 235.39 L 97.35 236.82 L 97.76 238.30 L 98.16 239.78 L 98.62 241.25 L 99.13 242.73 L 99.70 244.20 L 100.29 245.68 L 100.82 247.16 L 101.24 248.64 L 101.46 250.10 L 101.42 251.54 L 101.05 252.96 L 100.31 254.34 L 99.26 255.60 L 97.99 256.70 L 96.54 257.56 Z M 226.76 350.49 L 224.91 350.72 L 223.05 350.87 L 221.18 350.95 L 219.30 350.98 L 217.41 350.97 L 215.52 350.95 L 213.62 350.92 L 211.71 350.91 L 209.81 350.92 L 207.90 350.97 L 206.00 351.04 L 204.11 351.07 L 202.23 351.02 L 200.37 350.84 L 198.54 350.53 L 196.71 350.19 L 194.87 349.92 L 193.03 349.67 L 191.19 349.39 L 189.36 349.07 L 187.53 348.71 L 185.72 348.30 L 183.92 347.84 L 182.12 347.34 L 180.35 346.79 L 178.58 346.19 L 176.83 345.54 L 175.10 344.85 L 173.37 344.13 L 171.65 343.40 L 169.93 342.67 L 168.20 341.94 L 166.47 341.23 L 164.75 340.53 L 163.03 339.81 L 161.35 339.04 L 159.70 338.20 L 158.09 337.30 L 156.48 336.37 L 154.88 335.43 L 153.27 334.49 L 151.66 333.53 L 150.06 332.56 L 148.48 331.56 L 146.93 330.53 L 145.42 329.46 L 143.95 328.34 L 142.50 327.19 L 141.06 326.03 L 139.59 324.88 L 138.10 323.76 L 136.61 322.62 L 135.16 321.46 L 133.76 320.26 L 132.40 319.01 L 131.08 317.73 L 129.77 316.40 L 128.46 315.04 L 127.14 313.64 L 125.79 312.25 L 124.39 311.01 L 122.91 310.08 L 121.46 309.77 L 120.78 311.05 L 120.69 313.09 L 120.56 314.95 L 120.11 316.71 L 119.46 318.46 L 119.20 320.21 L 119.23 321.97 L 119.01 323.75 L 118.30 325.50 L 117.16 327.07 L 115.71 328.31 L 114.04 329.08 L 112.24 329.40 L 110.39 329.30 L 108.59 328.81 L 106.92 327.99 L 105.46 326.87 L 104.30 325.48 L 103.50 323.87 L 103.06 322.09 L 102.89 320.22 L 102.94 318.33 L 103.13 316.48 L 103.40 314.68 L 103.70 312.92 L 103.98 311.16 L 104.20 309.37 L 104.36 307.55 L 104.48 305.72 L 104.58 303.89 L 104.69 302.06 L 104.81 300.24 L 104.96 298.43 L 105.15 296.63 L 105.39 294.84 L 105.67 293.05 L 105.94 291.25 L 106.15 289.45 L 106.24 287.62 L 106.21 285.76 L 106.23 283.93 L 106.51 282.18 L 107.29 280.56 L 108.56 279.14 L 110.16 278.01 L 111.91 277.26 L 113.70 276.89 L 115.53 276.80 L 117.38 276.86 L 119.26 276.96 L 121.18 276.98 L 123.11 276.92 L 125.04 276.87 L 126.95 276.89 L 128.80 277.07 L 130.58 277.44 L 132.34 277.91 L 134.12 278.32 L 135.96 278.54 L 137.87 278.57 L 139.82 278.48 L 141.78 278.32 L 143.75 278.17 L 145.69 278.09 L 147.59 278.14 L 149.41 278.38 L 151.15 278.89 L 152.77 279.71 L 154.23 280.83 L 155.48 282.18 L 156.47 283.72 L 157.14 285.39 L 157.44 287.14 L 157.32 288.91 L 156.72 290.66 L 155.66 292.29 L 154.26 293.68 L 152.63 294.70 L 150.91 295.26 L 149.11 295.47 L 147.27 295.46 L 145.37 295.40 L 143.46 295.42 L 141.56 295.46 L 139.74 295.42 L 137.69 295.31 L 135.34 295.42 L 134.76 296.21 L 135.59 297.49 L 136.88 298.90 L 138.18 300.29 L 139.49 301.66 L 140.81 303.00 L 142.15 304.31 L 143.51 305.60 L 144.88 306.85 L 146.28 308.08 L 147.70 309.27 L 149.14 310.43 L 150.61 311.57 L 152.09 312.68 L 153.59 313.77 L 155.10 314.84 L 156.64 315.89 L 158.19 316.93 L 159.75 317.94 L 161.33 318.93 L 162.93 319.90 L 164.54 320.84 L 166.17 321.76 L 167.82 322.65 L 169.48 323.51 L 171.15 324.34 L 172.84 325.15 L 174.55 325.92 L 176.27 326.65 L 178.01 327.36 L 179.75 328.03 L 181.51 328.67 L 183.28 329.27 L 185.06 329.84 L 186.84 330.37 L 188.63 330.87 L 190.43 331.34 L 192.24 331.75 L 194.06 332.09 L 195.92 332.33 L 197.80 332.48 L 199.68 332.63 L 201.51 332.88 L 203.30 333.22 L 205.12 333.52 L 206.97 333.75 L 208.85 333.92 L 210.74 334.02 L 212.65 334.07 L 214.56 334.05 L 216.47 333.99 L 218.36 333.87 L 220.24 333.70 L 222.09 333.49 L 223.91 333.24 L 225.73 332.97 L 227.55 332.70 L 229.40 332.45 L 231.25 332.19 L 233.10 331.87 L 234.92 331.45 L 236.70 330.93 L 238.48 330.39 L 240.28 329.93 L 242.13 329.63 L 244.02 329.56 L 245.88 329.78 L 247.64 330.31 L 249.21 331.21 L 250.54 332.47 L 251.58 334.02 L 252.29 335.77 L 252.64 337.62 L 252.60 339.48 L 252.14 341.24 L 251.25 342.78 L 249.97 344.06 L 248.41 345.09 L 246.68 345.89 L 244.90 346.49 L 243.10 346.94 L 241.28 347.32 L 239.47 347.69 L 237.65 348.08 L 235.85 348.49 L 234.04 348.93 L 232.23 349.36 L 230.41 349.79 L 228.59 350.18 Z M 286.73 340.49 L 285.15 340.91 L 283.55 341.12 L 281.93 341.15 L 280.30 341.01 L 278.67 340.71 L 277.06 340.28 L 275.49 339.73 L 273.95 339.07 L 272.47 338.33 L 271.05 337.52 L 269.71 336.63 L 268.45 335.66 L 267.28 334.59 L 266.20 333.41 L 265.22 332.14 L 264.33 330.79 L 263.55 329.38 L 262.86 327.91 L 262.28 326.40 L 261.80 324.86 L 261.44 323.29 L 261.18 321.71 L 261.04 320.11 L 261.02 318.52 L 261.12 316.93 L 261.34 315.35 L 261.69 313.80 L 262.15 312.27 L 262.75 310.77 L 263.45 309.30 L 264.27 307.87 L 265.23 306.53 L 266.35 305.37 L 267.67 304.49 L 269.21 303.98 L 270.87 303.83 L 272.56 304.06 L 274.14 304.64 L 275.50 305.58 L 276.50 306.82 L 276.96 308.25 L 276.91 309.78 L 276.61 311.35 L 276.27 312.93 L 275.93 314.49 L 275.62 316.03 L 275.41 317.58 L 275.36 319.19 L 275.54 320.83 L 275.97 322.44 L 276.66 323.88 L 277.62 325.07 L 278.86 325.91 L 280.35 326.43 L 281.99 326.74 L 283.70 326.97 L 285.41 327.23 L 287.03 327.61 L 288.52 328.19 L 289.80 329.01 L 290.82 330.13 L 291.53 331.56 L 291.90 333.19 L 291.90 334.88 L 291.52 336.49 L 290.74 337.87 L 289.61 338.98 L 288.24 339.85 Z" fill="#FDF4E9" fill-rule="evenodd"/>
</svg>
