<svg xmlns="http://www.w3.org/2000/svg" viewBox="0 0 420 420" role="img" aria-hidden="true"><defs><linearGradient id="g" x1="0" y1="0" x2="1" y2="1"><stop stop-color="#e4dfc8"/><stop offset="1" stop-color="#909664"/></linearGradient></defs><rect width="420" height="420" rx="82" fill="url(#g)"/><circle cx="210" cy="210" r="126" fill="#fffaf0" opacity=".14"/><path d="M210 108v210" stroke="#2f5b52" stroke-width="24" stroke-linecap="round" opacity=".80"/><path d="M126 278c34-64 92-78 168-48 10 4 20 8 30 10-26 54-82 80-142 60-20-7-38-14-56-22Z" fill="#2f5b52" opacity=".74"/><path d="M132 180c36-54 86-68 150-44 12 5 24 10 36 12-24 48-74 72-128 56-20-6-40-14-58-24Z" fill="#f5ead4" opacity=".72"/><path d="M98 346h224" stroke="#2f5b52" stroke-width="16" stroke-linecap="round" opacity=".36"/><path d="M120 342c34-20 66-28 96-24 30 4 56 14 84 22" fill="none" stroke="#f5ead4" stroke-width="12" stroke-linecap="round" opacity=".62"/></svg>