<svg xmlns="http://www.w3.org/2000/svg"
  viewBox="0 0 420 420"
  role="img"
  aria-label="ゆるめる">
  <rect width="420" height="420" rx="72" fill="#D07E84"/>
  <path d="M 273.08 292.51 L 267.87 293.01 L 262.58 293.05 L 257.26 293.01 L 251.99 292.95 L 246.80 292.27 L 241.64 291.38 L 236.42 290.87 L 231.39 289.37 L 226.41 287.86 L 221.39 286.49 L 216.40 284.89 L 211.49 283.16 L 206.68 281.20 L 201.94 278.69 L 196.97 277.41 L 192.03 278.87 L 187.52 281.58 L 182.64 283.51 L 177.55 284.93 L 172.45 286.28 L 167.51 287.87 L 162.37 288.66 L 157.22 289.64 L 152.02 290.26 L 146.70 290.15 L 141.42 290.13 L 136.12 290.19 L 130.81 290.20 L 125.64 289.53 L 120.55 288.51 L 115.44 287.38 L 110.36 286.05 L 105.35 284.40 L 100.59 282.20 L 96.04 279.87 L 91.51 277.35 L 87.05 274.67 L 82.79 271.71 L 78.80 268.40 L 75.11 264.74 L 71.74 260.80 L 68.56 256.78 L 65.49 252.75 L 62.62 248.36 L 60.89 243.55 L 61.61 238.61 L 64.60 234.49 L 69.11 232.16 L 74.55 231.89 L 78.89 234.37 L 81.89 238.60 L 84.87 242.74 L 88.00 246.85 L 91.58 250.48 L 95.59 253.71 L 99.73 256.90 L 103.88 259.99 L 108.34 262.60 L 113.24 264.50 L 118.24 265.93 L 123.21 267.57 L 128.29 268.70 L 133.53 268.90 L 138.84 268.85 L 144.16 268.97 L 149.43 268.89 L 154.64 268.27 L 159.79 267.28 L 164.88 266.15 L 169.88 264.62 L 174.69 262.45 L 173.90 258.14 L 170.10 254.46 L 166.52 250.78 L 163.26 246.77 L 160.07 242.73 L 157.08 238.57 L 154.44 234.17 L 152.11 229.57 L 150.00 224.86 L 148.08 220.11 L 146.55 215.26 L 145.74 210.22 L 145.06 205.27 L 143.96 200.29 L 143.32 195.28 L 143.90 190.32 L 144.91 185.35 L 145.79 180.36 L 147.21 175.49 L 149.18 170.78 L 151.38 166.16 L 153.54 161.60 L 156.57 157.46 L 160.22 153.74 L 164.16 150.37 L 168.38 147.34 L 172.78 144.57 L 177.35 142.06 L 182.12 139.92 L 187.13 138.51 L 192.34 137.99 L 197.47 137.20 L 202.70 136.73 L 208.03 137.01 L 213.22 137.77 L 218.31 138.65 L 223.36 139.96 L 228.29 141.88 L 232.96 144.25 L 237.34 147.01 L 241.45 150.19 L 245.27 153.74 L 248.75 157.61 L 251.83 161.74 L 254.51 166.10 L 256.78 170.68 L 258.66 175.47 L 260.10 180.41 L 260.84 185.41 L 261.52 190.41 L 262.34 195.44 L 261.05 200.40 L 260.62 205.48 L 260.12 210.49 L 258.70 215.36 L 257.01 220.19 L 255.17 224.97 L 253.10 229.65 L 250.68 234.15 L 247.88 238.45 L 244.81 242.59 L 241.58 246.62 L 238.05 250.35 L 234.25 253.94 L 230.26 257.28 L 225.14 256.71 L 220.38 254.40 L 215.93 251.86 L 211.50 248.56 L 213.01 244.77 L 216.62 241.08 L 220.44 237.52 L 224.14 233.85 L 227.48 229.90 L 230.44 225.69 L 233.04 221.27 L 235.27 216.66 L 237.13 211.89 L 238.60 207.00 L 239.64 202.01 L 240.22 196.95 L 240.25 191.88 L 239.65 186.84 L 238.40 181.93 L 236.46 177.25 L 233.36 173.24 L 230.16 169.13 L 226.26 165.80 L 221.58 163.34 L 217.11 160.86 L 212.07 159.36 L 207.02 158.20 L 201.71 158.11 L 196.49 158.87 L 191.47 160.19 L 186.42 161.75 L 181.56 163.75 L 177.45 166.77 L 174.16 170.79 L 171.22 175.11 L 168.73 179.58 L 166.98 184.29 L 166.24 189.31 L 165.07 194.30 L 166.41 199.18 L 166.60 204.27 L 167.93 209.12 L 169.25 214.03 L 170.90 218.82 L 173.38 223.32 L 176.30 227.57 L 179.35 231.69 L 182.40 235.84 L 185.70 239.81 L 189.58 243.24 L 193.79 246.32 L 197.97 249.36 L 202.08 252.53 L 206.22 255.70 L 210.64 258.42 L 215.34 260.66 L 220.11 262.84 L 224.89 264.99 L 229.74 266.94 L 234.71 268.52 L 239.81 269.61 L 244.99 270.44 L 250.09 271.64 L 255.37 271.72 L 260.68 271.71 L 265.97 271.77 L 271.24 271.54 L 276.32 270.49 L 281.47 269.58 L 286.58 268.61 L 291.46 266.84 L 296.25 264.62 L 300.97 262.39 L 305.56 259.99 L 309.87 257.05 L 313.85 253.68 L 317.58 250.08 L 321.36 246.48 L 324.80 242.64 L 327.42 238.22 L 330.70 234.28 L 335.47 231.98 L 340.61 232.09 L 345.04 234.63 L 347.88 239.04 L 348.06 243.89 L 346.26 248.55 L 343.65 253.11 L 340.52 257.17 L 337.09 260.97 L 333.47 264.71 L 329.69 268.34 L 325.76 271.77 L 321.67 274.93 L 317.35 277.76 L 312.77 280.31 L 308.13 282.77 L 303.42 285.07 L 298.55 286.97 L 293.54 288.52 L 288.50 289.96 L 283.40 291.04 L 278.20 291.60 Z" fill="#FDF4E9" fill-rule="evenodd"/>
</svg>
