<svg xmlns="http://www.w3.org/2000/svg"
  viewBox="0 0 64 64"
  role="img"
  aria-label="ぬくめる">
  <title>ぬくめる</title>

      <defs>
        <linearGradient id="g-nukumeru" x1="0" y1="1" x2="0" y2="0">
          <stop offset="0%" stop-color="#D7692D" stop-opacity="0.55"/>
          <stop offset="100%" stop-color="#F29A62" stop-opacity="0.88"/>
        </linearGradient>
      </defs>
      <circle cx="32" cy="32" r="28" fill="#FFF0E0" opacity="0.78"/>
      <path d="M32 10 C23 21 19 28 19 35 C19 43 25 49 32 49 C39 49 45 43 45 35 C45 28 41 21 32 10 Z"
        fill="none" stroke="#A85124" stroke-width="2.3" stroke-linejoin="round"/>
      <path d="M32 24 C27 30 25 34 25 38 C25 42 28 45 32 45 C36 45 39 42 39 38 C39 34 37 30 32 24 Z"
        fill="url(#g-nukumeru)"/>
      <path d="M22 52 Q32 56 42 52"
        fill="none" stroke="#E2884F" stroke-width="2.5"
        stroke-linecap="round" opacity="0.8"/>
</svg>
