<svg xmlns="http://www.w3.org/2000/svg" viewBox="0 0 420 420" role="img" aria-hidden="true"><defs><linearGradient id="g" x1="0" y1="0" x2="1" y2="1"><stop stop-color="#d9ece4"/><stop offset="1" stop-color="#74ad97"/></linearGradient></defs><rect width="420" height="420" rx="82" fill="url(#g)"/><circle cx="210" cy="210" r="126" fill="#fffaf0" opacity=".14"/><circle cx="210" cy="192" r="82" fill="#2f5b52" opacity=".78"/><path d="M246 124c-44 22-64 66-48 110 13 36 46 58 86 58-22 30-58 48-98 48-68 0-124-56-124-124 0-58 42-108 100-120 30-6 58 2 84 28Z" fill="#f5ead4" opacity=".90"/><path d="M112 314c38 16 78 22 122 14 30-6 58-18 80-36" fill="none" stroke="#f5ead4" stroke-width="14" stroke-linecap="round" opacity=".66"/><path d="M116 350c48 18 104 18 154 0" fill="none" stroke="#2f5b52" stroke-width="12" stroke-linecap="round" opacity=".34"/></svg>