<svg xmlns="http://www.w3.org/2000/svg"
  viewBox="0 0 64 64"
  role="img"
  aria-label="めぐらせる">
  <title>めぐらせる</title>

      <defs>
        <radialGradient id="g-meguraseru" cx="50%" cy="50%" r="50%">
          <stop offset="0%" stop-color="#A9C974" stop-opacity="0.30"/>
          <stop offset="100%" stop-color="#A9C974" stop-opacity="0"/>
        </radialGradient>
      </defs>
      <circle cx="32" cy="32" r="28" fill="#EEF5DD" opacity="0.78"/>
      <circle cx="32" cy="32" r="19" fill="url(#g-meguraseru)"/>
      <path d="M20 19 C28 13 40 14 46 21"
        fill="none" stroke="#799B49" stroke-width="2.3"
        stroke-linecap="round"/>
      <path d="M43.5 17.5 L46.5 21 L42 22"
        fill="none" stroke="#799B49" stroke-width="2.1"
        stroke-linecap="round" stroke-linejoin="round"/>
      <path d="M48 28 C51 37 45 47 36 50"
        fill="none" stroke="#5F7836" stroke-width="2.3"
        stroke-linecap="round"/>
      <path d="M39 47.5 L35.5 50.5 L40 52"
        fill="none" stroke="#5F7836" stroke-width="2.1"
        stroke-linecap="round" stroke-linejoin="round"/>
      <path d="M29 50 C19 48 13 40 15 30"
        fill="none" stroke="#91B75C" stroke-width="2.3"
        stroke-linecap="round"/>
      <path d="M12.8 32.8 L15.2 29 L18 32.5"
        fill="none" stroke="#91B75C" stroke-width="2.1"
        stroke-linecap="round" stroke-linejoin="round"/>
      <path d="M25 36
               C27 29 34 25 41 26
               C40 33 35 38 28 40
               C27 39 26 38 25 36 Z"
        fill="#91B75C" opacity="0.85"/>
      <path d="M28 37 C32 34 35 30 39 27"
        fill="none" stroke="#F8FBEF" stroke-width="1.5"
        stroke-linecap="round" opacity="0.85"/>
</svg>
