<svg xmlns="http://www.w3.org/2000/svg" viewBox="0 0 420 420" role="img" aria-hidden="true"><defs><linearGradient id="g" x1="0" y1="0" x2="1" y2="1"><stop stop-color="#d8e6e8"/><stop offset="1" stop-color="#6f97a4"/></linearGradient></defs><rect width="420" height="420" rx="82" fill="url(#g)"/><circle cx="210" cy="210" r="126" fill="#fffaf0" opacity=".14"/><path d="M92 242c34-34 72-34 112 0s78 34 124 0" fill="none" stroke="#2f5b52" stroke-width="26" stroke-linecap="round" opacity=".82"/><path d="M92 302c34-34 72-34 112 0s78 34 124 0" fill="none" stroke="#f5ead4" stroke-width="18" stroke-linecap="round" opacity=".74"/><path d="M210 70c32 44 70 80 70 128 0 42-32 76-70 76s-70-34-70-76c0-48 38-84 70-128Z" fill="#2f5b52" opacity=".76"/><path d="M184 218c18 14 36 14 54 0" fill="none" stroke="#f5ead4" stroke-width="12" stroke-linecap="round" opacity=".78"/></svg>