<svg xmlns="http://www.w3.org/2000/svg"
  viewBox="0 0 420 420"
  role="img"
  aria-label="しずめる">
  <rect width="420" height="420" rx="72" fill="#62A69B"/>
  <path d="M 229.40 303.49 L 226.07 303.87 L 222.71 304.01 L 219.32 304.01 L 215.92 303.95 L 212.50 303.91 L 209.08 303.95 L 205.66 304.03 L 202.27 304.05 L 198.90 303.92 L 195.57 303.55 L 192.28 302.91 L 188.95 302.44 L 185.62 301.94 L 182.38 301.10 L 179.16 300.14 L 175.93 299.19 L 172.71 298.20 L 169.53 297.11 L 166.40 295.89 L 163.32 294.53 L 160.28 293.06 L 157.29 291.49 L 154.33 289.84 L 151.41 288.14 L 148.51 286.39 L 145.65 284.60 L 142.86 282.74 L 140.15 280.77 L 137.56 278.63 L 135.08 276.35 L 132.66 273.99 L 130.25 271.61 L 127.84 269.24 L 125.48 266.83 L 123.23 264.34 L 121.13 261.74 L 119.16 259.04 L 117.25 256.29 L 115.38 253.51 L 113.54 250.71 L 111.79 247.85 L 110.17 244.92 L 108.71 241.91 L 107.35 238.85 L 106.02 235.77 L 104.67 232.70 L 103.45 229.60 L 102.56 226.41 L 101.85 223.16 L 101.07 219.93 L 100.20 216.72 L 99.40 213.50 L 98.83 210.25 L 98.43 206.95 L 97.71 203.70 L 97.33 200.41 L 97.37 197.05 L 97.45 193.68 L 97.43 190.31 L 97.39 186.96 L 97.47 183.63 L 97.76 180.32 L 98.32 177.04 L 98.99 173.78 L 99.61 170.54 L 100.26 167.31 L 101.02 164.07 L 101.91 160.84 L 102.88 157.66 L 103.99 154.55 L 105.33 151.50 L 106.77 148.46 L 108.09 145.40 L 109.41 142.34 L 110.93 139.39 L 112.67 136.53 L 114.51 133.72 L 116.36 130.91 L 118.20 128.12 L 120.11 125.38 L 122.14 122.73 L 124.34 120.21 L 126.68 117.78 L 129.07 115.39 L 131.47 113.00 L 133.89 110.64 L 136.38 108.37 L 138.96 106.23 L 141.65 104.22 L 144.41 102.32 L 147.22 100.45 L 150.05 98.62 L 152.92 96.85 L 155.85 95.19 L 158.86 93.66 L 161.94 92.27 L 165.07 90.99 L 168.22 89.78 L 171.38 88.62 L 174.56 87.52 L 177.75 86.50 L 180.97 85.56 L 184.22 84.73 L 187.50 84.10 L 190.82 83.66 L 194.12 83.09 L 197.42 82.41 L 200.76 81.96 L 204.14 81.83 L 207.54 81.83 L 210.95 81.83 L 214.35 81.85 L 217.73 82.00 L 221.07 82.38 L 224.38 83.03 L 227.67 83.68 L 230.97 84.17 L 234.29 84.68 L 237.58 85.35 L 240.82 86.24 L 244.03 87.27 L 247.22 88.36 L 250.41 89.43 L 253.57 90.59 L 256.67 91.98 L 259.69 93.75 L 261.93 95.93 L 260.51 98.04 L 257.35 99.23 L 253.94 99.98 L 250.68 100.99 L 247.58 102.31 L 244.59 103.84 L 241.63 105.44 L 238.66 107.06 L 235.73 108.75 L 232.92 110.59 L 230.28 112.66 L 227.77 114.90 L 225.34 117.25 L 222.93 119.62 L 220.51 121.99 L 218.15 124.39 L 215.91 126.89 L 213.82 129.50 L 211.87 132.23 L 210.06 135.05 L 208.37 137.95 L 206.80 140.91 L 205.34 143.93 L 203.97 146.98 L 202.74 150.07 L 201.74 153.22 L 200.89 156.42 L 199.99 159.63 L 199.09 162.85 L 198.55 166.12 L 198.48 169.45 L 198.50 172.80 L 198.45 176.17 L 198.39 179.54 L 198.36 182.90 L 198.44 186.24 L 198.66 189.56 L 199.08 192.85 L 199.70 196.12 L 200.52 199.35 L 201.51 202.53 L 202.66 205.67 L 203.92 208.76 L 205.27 211.82 L 206.69 214.85 L 208.19 217.85 L 209.79 220.79 L 211.52 223.66 L 213.37 226.44 L 215.35 229.14 L 217.45 231.76 L 219.65 234.30 L 221.96 236.75 L 224.40 239.05 L 226.97 241.19 L 229.66 243.20 L 232.43 245.10 L 235.27 246.93 L 238.16 248.71 L 241.11 250.39 L 244.11 251.93 L 247.18 253.30 L 250.32 254.50 L 253.51 255.56 L 256.75 256.51 L 260.01 257.37 L 263.30 258.06 L 266.64 258.38 L 270.02 258.35 L 273.42 258.32 L 276.84 258.41 L 280.25 258.51 L 283.65 258.55 L 287.03 258.42 L 290.37 258.03 L 293.68 257.38 L 296.95 256.55 L 300.17 255.63 L 303.34 254.64 L 306.54 253.40 L 309.83 251.80 L 312.87 250.74 L 313.14 252.64 L 311.50 255.88 L 309.43 258.66 L 307.26 261.12 L 305.24 263.74 L 303.30 266.54 L 300.97 268.94 L 298.29 270.93 L 295.68 273.04 L 293.21 275.32 L 290.74 277.63 L 288.22 279.88 L 285.58 281.97 L 282.80 283.83 L 279.89 285.51 L 276.93 287.12 L 273.94 288.72 L 270.95 290.32 L 267.94 291.90 L 264.90 293.41 L 261.82 294.82 L 258.70 296.11 L 255.52 297.23 L 252.29 298.18 L 249.03 299.05 L 245.81 300.02 L 242.61 300.98 L 239.34 301.73 L 236.01 302.28 L 232.70 302.87 Z M 226.51 343.26 L 224.48 343.57 L 222.43 343.77 L 220.36 343.89 L 218.28 343.94 L 216.18 343.94 L 214.08 343.90 L 211.98 343.85 L 209.87 343.80 L 207.76 343.77 L 205.66 343.79 L 203.57 343.83 L 201.49 343.85 L 199.42 343.77 L 197.38 343.55 L 195.37 343.13 L 193.35 342.66 L 191.30 342.44 L 189.21 342.38 L 187.13 342.31 L 185.07 342.16 L 183.03 341.88 L 181.02 341.47 L 179.00 341.08 L 176.98 340.74 L 174.94 340.42 L 172.91 340.10 L 170.89 339.74 L 168.87 339.33 L 166.87 338.89 L 164.87 338.40 L 162.88 337.89 L 160.89 337.35 L 158.90 336.80 L 156.92 336.24 L 154.94 335.67 L 152.96 335.10 L 150.98 334.51 L 149.01 333.92 L 147.04 333.30 L 145.08 332.66 L 143.13 331.98 L 141.18 331.28 L 139.25 330.54 L 137.34 329.77 L 135.43 328.96 L 133.53 328.12 L 131.65 327.26 L 129.77 326.36 L 127.91 325.44 L 126.05 324.50 L 124.20 323.54 L 122.37 322.55 L 120.56 321.54 L 118.76 320.51 L 116.98 319.47 L 115.22 318.40 L 113.48 317.30 L 111.76 316.19 L 110.05 315.05 L 108.35 313.88 L 106.66 312.68 L 104.96 311.44 L 103.30 310.16 L 101.76 308.77 L 100.47 307.23 L 99.54 305.48 L 99.05 303.53 L 99.03 301.49 L 99.53 299.50 L 100.56 297.66 L 102.03 296.09 L 103.81 294.89 L 105.75 294.20 L 107.72 294.04 L 109.68 294.35 L 111.61 295.00 L 113.46 295.89 L 115.23 296.93 L 116.95 298.08 L 118.64 299.30 L 120.31 300.55 L 121.99 301.78 L 123.70 302.96 L 125.45 304.05 L 127.26 305.04 L 129.10 305.96 L 130.97 306.83 L 132.86 307.66 L 134.77 308.47 L 136.68 309.28 L 138.58 310.09 L 140.48 310.92 L 142.39 311.73 L 144.30 312.54 L 146.21 313.33 L 148.14 314.09 L 150.07 314.82 L 152.02 315.50 L 153.97 316.15 L 155.94 316.77 L 157.92 317.35 L 159.90 317.91 L 161.89 318.46 L 163.88 318.98 L 165.88 319.49 L 167.87 319.99 L 169.87 320.47 L 171.88 320.94 L 173.88 321.37 L 175.90 321.78 L 177.92 322.18 L 179.94 322.55 L 181.96 322.92 L 183.98 323.26 L 186.02 323.57 L 188.07 323.78 L 190.15 323.86 L 192.24 323.90 L 194.29 324.11 L 196.30 324.53 L 198.32 324.90 L 200.37 325.14 L 202.43 325.29 L 204.51 325.36 L 206.60 325.38 L 208.70 325.37 L 210.80 325.35 L 212.90 325.33 L 215.00 325.32 L 217.10 325.34 L 219.19 325.34 L 221.26 325.23 L 223.28 324.89 L 225.28 324.41 L 227.30 324.06 L 229.37 323.89 L 231.46 323.88 L 233.55 323.84 L 235.59 323.58 L 237.60 323.17 L 239.63 322.81 L 241.67 322.51 L 243.70 322.20 L 245.72 321.84 L 247.74 321.45 L 249.75 321.04 L 251.76 320.61 L 253.77 320.18 L 255.78 319.74 L 257.79 319.29 L 259.79 318.81 L 261.79 318.30 L 263.78 317.77 L 265.76 317.19 L 267.73 316.58 L 269.68 315.93 L 271.63 315.25 L 273.57 314.53 L 275.49 313.78 L 277.41 313.00 L 279.32 312.20 L 281.22 311.37 L 283.12 310.52 L 285.00 309.66 L 286.88 308.77 L 288.76 307.88 L 290.63 306.97 L 292.50 306.05 L 294.36 305.13 L 296.21 304.19 L 298.05 303.23 L 299.87 302.23 L 301.65 301.18 L 303.40 300.07 L 305.11 298.88 L 306.78 297.64 L 308.46 296.42 L 310.20 295.36 L 312.08 294.55 L 314.08 294.10 L 316.12 294.07 L 318.11 294.51 L 319.94 295.46 L 321.49 296.84 L 322.63 298.54 L 323.34 300.46 L 323.64 302.49 L 323.51 304.51 L 322.94 306.43 L 321.90 308.10 L 320.43 309.52 L 318.72 310.76 L 316.94 311.93 L 315.23 313.10 L 313.57 314.29 L 311.91 315.47 L 310.22 316.63 L 308.49 317.76 L 306.73 318.85 L 304.93 319.89 L 303.12 320.89 L 301.30 321.88 L 299.49 322.88 L 297.68 323.90 L 295.87 324.89 L 294.03 325.82 L 292.14 326.65 L 290.21 327.40 L 288.27 328.13 L 286.34 328.89 L 284.43 329.69 L 282.53 330.52 L 280.63 331.35 L 278.73 332.17 L 276.81 332.95 L 274.88 333.67 L 272.93 334.31 L 270.94 334.86 L 268.94 335.35 L 266.93 335.82 L 264.92 336.30 L 262.93 336.83 L 260.95 337.39 L 258.98 337.96 L 257.00 338.52 L 255.01 339.06 L 253.01 339.56 L 251.00 339.99 L 248.98 340.33 L 246.93 340.59 L 244.88 340.82 L 242.84 341.07 L 240.80 341.38 L 238.78 341.75 L 236.76 342.08 L 234.71 342.31 L 232.64 342.45 L 230.57 342.59 L 228.53 342.87 Z" fill="#FDF4E9" fill-rule="evenodd"/>
</svg>
