<svg xmlns="http://www.w3.org/2000/svg"
  viewBox="0 0 420 420"
  role="img"
  aria-label="ささえる">
  <rect width="420" height="420" rx="72" fill="#B99244"/>
  <path d="M 211.41 132.83 L 209.87 133.03 L 208.31 132.99 L 206.73 132.77 L 205.13 132.45 L 203.53 132.06 L 201.92 131.69 L 200.32 131.33 L 198.75 130.95 L 197.25 130.50 L 195.81 129.92 L 194.43 129.23 L 193.09 128.41 L 191.79 127.46 L 190.54 126.41 L 189.36 125.26 L 188.24 124.04 L 187.20 122.75 L 186.25 121.43 L 185.40 120.07 L 184.65 118.68 L 184.00 117.25 L 183.44 115.78 L 182.97 114.28 L 182.60 112.74 L 182.33 111.18 L 182.16 109.59 L 182.09 107.99 L 182.11 106.38 L 182.23 104.77 L 182.45 103.18 L 182.76 101.60 L 183.18 100.05 L 183.70 98.53 L 184.31 97.05 L 185.03 95.63 L 185.84 94.26 L 186.76 92.95 L 187.77 91.71 L 188.87 90.53 L 190.05 89.42 L 191.29 88.37 L 192.59 87.38 L 193.94 86.45 L 195.34 85.60 L 196.78 84.84 L 198.26 84.21 L 199.78 83.71 L 201.33 83.39 L 202.92 83.23 L 204.55 83.19 L 206.20 83.21 L 207.87 83.23 L 209.56 83.22 L 211.25 83.18 L 212.90 83.23 L 214.47 83.43 L 215.95 83.88 L 217.34 84.54 L 218.67 85.36 L 219.96 86.31 L 221.24 87.33 L 222.53 88.37 L 223.82 89.42 L 225.10 90.50 L 226.31 91.62 L 227.44 92.78 L 228.44 94.01 L 229.29 95.32 L 229.99 96.71 L 230.56 98.15 L 231.01 99.66 L 231.36 101.20 L 231.63 102.78 L 231.83 104.39 L 231.96 106.00 L 232.02 107.62 L 232.00 109.24 L 231.88 110.85 L 231.67 112.43 L 231.34 114.00 L 230.91 115.52 L 230.35 117.00 L 229.68 118.45 L 228.93 119.85 L 228.09 121.22 L 227.20 122.57 L 226.27 123.88 L 225.28 125.15 L 224.22 126.34 L 223.04 127.39 L 221.74 128.29 L 220.35 129.08 L 218.90 129.77 L 217.42 130.42 L 215.92 131.06 L 214.42 131.72 L 212.92 132.36 Z M 305.92 341.99 L 302.73 342.62 L 299.44 342.83 L 296.10 342.78 L 292.75 342.65 L 289.40 342.56 L 286.08 342.54 L 282.77 342.56 L 279.46 342.59 L 276.15 342.62 L 272.84 342.64 L 269.52 342.66 L 266.20 342.66 L 262.88 342.66 L 259.55 342.66 L 256.23 342.66 L 252.91 342.65 L 249.58 342.65 L 246.26 342.64 L 242.94 342.63 L 239.62 342.63 L 236.30 342.62 L 232.98 342.62 L 229.66 342.62 L 226.34 342.61 L 223.03 342.61 L 219.71 342.61 L 216.39 342.61 L 213.07 342.61 L 209.75 342.61 L 206.43 342.61 L 203.11 342.62 L 199.79 342.62 L 196.47 342.63 L 193.15 342.64 L 189.83 342.64 L 186.50 342.65 L 183.18 342.66 L 179.86 342.66 L 176.54 342.67 L 173.22 342.67 L 169.90 342.67 L 166.58 342.67 L 163.26 342.66 L 159.94 342.65 L 156.62 342.64 L 153.30 342.63 L 149.99 342.60 L 146.67 342.58 L 143.35 342.56 L 140.04 342.54 L 136.72 342.53 L 133.40 342.55 L 130.07 342.58 L 126.74 342.65 L 123.40 342.75 L 120.07 342.86 L 116.74 342.90 L 113.43 342.79 L 110.16 342.45 L 107.01 341.74 L 104.19 340.44 L 101.93 338.31 L 100.42 335.38 L 99.77 332.05 L 100.10 328.71 L 101.46 325.76 L 103.65 323.37 L 106.40 321.68 L 109.46 320.76 L 112.72 320.43 L 116.08 320.44 L 119.45 320.54 L 122.79 320.57 L 126.09 320.55 L 129.39 320.52 L 132.69 320.49 L 136.01 320.49 L 139.33 320.50 L 142.66 320.52 L 145.99 320.55 L 149.32 320.57 L 152.65 320.58 L 155.97 320.57 L 159.28 320.55 L 162.59 320.51 L 165.90 320.47 L 169.21 320.44 L 172.52 320.44 L 175.85 320.47 L 179.19 320.55 L 182.54 320.70 L 185.91 320.81 L 189.27 320.65 L 192.45 319.94 L 194.73 318.35 L 195.84 315.86 L 196.13 312.74 L 196.00 309.31 L 195.81 305.84 L 195.69 302.44 L 195.62 299.11 L 195.61 295.82 L 195.62 292.57 L 195.67 289.34 L 195.72 286.12 L 195.76 282.90 L 195.80 279.68 L 195.82 276.44 L 195.83 273.20 L 195.83 269.95 L 195.83 266.69 L 195.81 263.42 L 195.79 260.15 L 195.77 256.88 L 195.74 253.61 L 195.72 250.33 L 195.70 247.05 L 195.68 243.77 L 195.66 240.50 L 195.66 237.23 L 195.66 233.96 L 195.66 230.69 L 195.68 227.43 L 195.71 224.18 L 195.74 220.93 L 195.77 217.68 L 195.80 214.43 L 195.83 211.18 L 195.86 207.93 L 195.88 204.68 L 195.89 201.43 L 195.89 198.17 L 195.88 194.91 L 195.85 191.64 L 195.81 188.37 L 195.75 185.10 L 195.66 181.81 L 195.55 178.52 L 195.45 175.22 L 195.39 171.94 L 195.41 168.67 L 195.53 165.42 L 195.80 162.22 L 196.26 159.06 L 196.93 155.95 L 197.91 152.97 L 199.47 150.36 L 201.89 148.41 L 205.20 147.32 L 208.80 147.19 L 212.04 148.07 L 214.61 149.86 L 216.49 152.31 L 217.70 155.17 L 218.31 158.26 L 218.49 161.49 L 218.44 164.81 L 218.33 168.14 L 218.25 171.45 L 218.20 174.74 L 218.17 178.01 L 218.17 181.28 L 218.18 184.53 L 218.19 187.78 L 218.21 191.03 L 218.23 194.28 L 218.25 197.53 L 218.26 200.79 L 218.27 204.04 L 218.28 207.30 L 218.28 210.56 L 218.28 213.81 L 218.28 217.08 L 218.28 220.34 L 218.28 223.60 L 218.28 226.86 L 218.27 230.13 L 218.27 233.40 L 218.26 236.66 L 218.26 239.93 L 218.25 243.20 L 218.24 246.46 L 218.23 249.73 L 218.22 253.00 L 218.22 256.27 L 218.21 259.53 L 218.21 262.80 L 218.21 266.06 L 218.21 269.32 L 218.22 272.58 L 218.22 275.84 L 218.23 279.09 L 218.25 282.34 L 218.27 285.59 L 218.29 288.83 L 218.32 292.07 L 218.36 295.30 L 218.38 298.55 L 218.35 301.83 L 218.26 305.16 L 218.07 308.56 L 217.91 311.95 L 218.04 315.16 L 218.71 318.03 L 220.29 320.18 L 223.28 320.81 L 226.73 320.71 L 230.21 320.49 L 233.59 320.41 L 236.90 320.44 L 240.17 320.52 L 243.44 320.58 L 246.75 320.60 L 250.07 320.59 L 253.40 320.56 L 256.75 320.52 L 260.09 320.48 L 263.43 320.45 L 266.76 320.44 L 270.07 320.46 L 273.37 320.51 L 276.66 320.57 L 279.95 320.63 L 283.25 320.66 L 286.56 320.67 L 289.90 320.62 L 293.27 320.50 L 296.67 320.32 L 300.06 320.19 L 303.37 320.33 L 306.53 320.90 L 309.46 322.10 L 311.95 323.98 L 313.72 326.56 L 314.55 329.73 L 314.44 333.13 L 313.42 336.33 L 311.53 338.94 L 308.94 340.80 Z M 185.78 247.66 L 184.59 248.28 L 183.06 248.41 L 181.37 248.19 L 179.69 247.77 L 178.12 247.29 L 176.59 246.83 L 175.06 246.46 L 173.51 246.16 L 171.96 245.89 L 170.41 245.62 L 168.85 245.32 L 167.30 244.97 L 165.76 244.55 L 164.22 244.10 L 162.69 243.64 L 161.15 243.20 L 159.60 242.80 L 158.06 242.42 L 156.53 242.01 L 155.03 241.50 L 153.57 240.86 L 152.12 240.16 L 150.66 239.47 L 149.19 238.83 L 147.69 238.25 L 146.19 237.71 L 144.71 237.12 L 143.29 236.41 L 141.89 235.65 L 140.50 234.90 L 139.08 234.20 L 137.67 233.49 L 136.29 232.74 L 134.93 231.94 L 133.58 231.11 L 132.23 230.27 L 130.88 229.43 L 129.51 228.59 L 128.16 227.74 L 126.81 226.87 L 125.48 225.98 L 124.18 225.05 L 122.91 224.09 L 121.66 223.10 L 120.43 222.08 L 119.22 221.03 L 118.04 219.96 L 116.87 218.86 L 115.73 217.73 L 114.60 216.59 L 113.48 215.43 L 112.39 214.25 L 111.31 213.06 L 110.25 211.86 L 109.22 210.66 L 108.21 209.44 L 107.21 208.23 L 106.22 207.00 L 105.24 205.76 L 104.26 204.51 L 103.29 203.24 L 102.34 201.96 L 101.41 200.66 L 100.51 199.34 L 99.65 198.00 L 98.83 196.64 L 98.06 195.25 L 97.34 193.83 L 96.70 192.39 L 96.15 190.92 L 95.75 189.43 L 95.54 187.92 L 95.56 186.40 L 95.86 184.87 L 96.42 183.36 L 97.22 181.93 L 98.23 180.64 L 99.41 179.54 L 100.73 178.66 L 102.16 178.00 L 103.68 177.56 L 105.25 177.34 L 106.85 177.33 L 108.45 177.53 L 110.01 177.94 L 111.49 178.54 L 112.85 179.35 L 114.06 180.35 L 115.08 181.54 L 115.95 182.87 L 116.73 184.29 L 117.47 185.74 L 118.23 187.17 L 119.04 188.55 L 119.91 189.86 L 120.84 191.12 L 121.84 192.33 L 122.89 193.52 L 123.99 194.69 L 125.09 195.86 L 126.17 197.05 L 127.19 198.28 L 128.13 199.56 L 129.05 200.84 L 130.09 202.01 L 131.27 203.04 L 132.53 204.01 L 133.80 204.96 L 135.09 205.91 L 136.38 206.84 L 137.68 207.77 L 139.00 208.68 L 140.32 209.58 L 141.65 210.46 L 142.99 211.34 L 144.34 212.19 L 145.69 213.03 L 147.06 213.87 L 148.42 214.69 L 149.79 215.52 L 151.17 216.34 L 152.55 217.14 L 153.96 217.88 L 155.39 218.54 L 156.85 219.14 L 158.32 219.73 L 159.80 220.34 L 161.28 220.94 L 162.78 221.53 L 164.29 222.11 L 165.80 222.65 L 167.32 223.15 L 168.85 223.61 L 170.39 224.00 L 171.93 224.32 L 173.49 224.59 L 175.05 224.82 L 176.62 225.04 L 178.20 225.27 L 179.81 225.53 L 181.46 225.80 L 183.06 226.18 L 184.49 226.77 L 185.62 227.67 L 186.39 228.90 L 186.81 230.35 L 186.93 231.95 L 186.87 233.62 L 186.74 235.29 L 186.66 236.89 L 186.65 238.43 L 186.72 239.99 L 186.83 241.61 L 186.91 243.28 L 186.84 244.94 L 186.50 246.48 Z M 236.92 247.74 L 235.35 248.07 L 233.78 248.35 L 232.16 248.49 L 230.50 248.43 L 228.91 248.07 L 227.73 247.26 L 227.17 245.94 L 227.07 244.30 L 227.19 242.53 L 227.34 240.87 L 227.38 239.36 L 227.34 237.88 L 227.24 236.29 L 227.12 234.60 L 227.06 232.89 L 227.12 231.24 L 227.41 229.76 L 228.18 228.67 L 229.40 227.96 L 230.78 227.42 L 232.28 227.00 L 233.86 226.65 L 235.49 226.33 L 237.11 226.00 L 238.70 225.63 L 240.26 225.21 L 241.80 224.76 L 243.32 224.28 L 244.82 223.77 L 246.31 223.24 L 247.80 222.69 L 249.28 222.14 L 250.78 221.58 L 252.28 221.02 L 253.79 220.47 L 255.32 219.92 L 256.83 219.34 L 258.31 218.74 L 259.76 218.08 L 261.15 217.37 L 262.53 216.63 L 263.92 215.91 L 265.32 215.19 L 266.72 214.44 L 268.10 213.66 L 269.47 212.85 L 270.83 212.00 L 272.17 211.13 L 273.50 210.23 L 274.82 209.31 L 276.12 208.37 L 277.41 207.42 L 278.68 206.45 L 279.94 205.46 L 281.19 204.47 L 282.41 203.45 L 283.61 202.40 L 284.77 201.33 L 285.91 200.21 L 287.00 199.06 L 288.06 197.87 L 289.07 196.62 L 290.05 195.34 L 291.00 194.04 L 291.96 192.76 L 292.93 191.50 L 293.92 190.28 L 294.91 189.08 L 295.88 187.86 L 296.80 186.57 L 297.62 185.19 L 298.38 183.71 L 299.12 182.23 L 299.93 180.84 L 300.88 179.61 L 302.03 178.65 L 303.40 177.98 L 304.93 177.57 L 306.56 177.39 L 308.25 177.40 L 309.93 177.58 L 311.56 177.92 L 313.10 178.44 L 314.51 179.14 L 315.76 180.04 L 316.80 181.16 L 317.62 182.49 L 318.23 183.96 L 318.62 185.54 L 318.80 187.16 L 318.77 188.77 L 318.55 190.33 L 318.15 191.83 L 317.61 193.29 L 316.94 194.71 L 316.16 196.10 L 315.31 197.45 L 314.41 198.79 L 313.48 200.11 L 312.54 201.42 L 311.62 202.72 L 310.74 204.03 L 309.86 205.33 L 308.98 206.63 L 308.07 207.92 L 307.11 209.19 L 306.09 210.43 L 304.99 211.60 L 303.81 212.65 L 302.58 213.64 L 301.38 214.65 L 300.20 215.72 L 299.04 216.83 L 297.90 217.96 L 296.75 219.09 L 295.60 220.23 L 294.43 221.35 L 293.25 222.43 L 292.03 223.47 L 290.78 224.46 L 289.50 225.42 L 288.21 226.35 L 286.90 227.26 L 285.59 228.17 L 284.28 229.08 L 282.95 229.97 L 281.61 230.84 L 280.25 231.69 L 278.87 232.50 L 277.47 233.28 L 276.04 234.03 L 274.60 234.76 L 273.15 235.46 L 271.69 236.14 L 270.21 236.81 L 268.74 237.46 L 267.26 238.10 L 265.79 238.74 L 264.32 239.37 L 262.84 239.97 L 261.35 240.56 L 259.86 241.12 L 258.36 241.64 L 256.84 242.14 L 255.32 242.61 L 253.80 243.08 L 252.28 243.56 L 250.76 244.04 L 249.24 244.53 L 247.73 245.02 L 246.21 245.49 L 244.68 245.94 L 243.15 246.35 L 241.60 246.73 L 240.04 247.07 L 238.48 247.41 Z" fill="#FDF4E9" fill-rule="evenodd"/>
</svg>
