<svg xmlns="http://www.w3.org/2000/svg" viewBox="0 0 480 300" role="img" aria-labelledby="title desc"><title id="title">すねの外側を膝の少し下から足首へなでる</title><desc id="desc">動作を示す模式図。紫の矢印は動かす向き、緑は手を当てる場所。</desc><defs><marker id="arrow" viewBox="0 0 10 10" refX="8" refY="5" markerWidth="5" markerHeight="5" orient="auto-start-reverse"><path d="M0 1 L9 5 L0 9" fill="none" stroke="#9C739F" stroke-width="2"/></marker></defs><rect width="480" height="300" rx="22" fill="#FCFAFD"/><path d="M209 63 Q236 48 258 67 L255 183 L262 224 Q266 239 251 243 L210 243 Q197 239 202 224 L213 185 Z" stroke="#61536D" stroke-width="4" fill="#F6E9DE" stroke-linecap="round" stroke-linejoin="round" /><path d="M232 91 L230 213" stroke="#C4B1C9" stroke-width="2" fill="none" stroke-linecap="round" stroke-linejoin="round" /><path d="M248 95 L247 210" stroke="#9C739F" stroke-width="5" fill="none" stroke-linecap="round" stroke-linejoin="round" marker-end="url(#arrow)"/><g transform="translate(279 149) rotate(-30) scale(0.8)"><path d="M-10 20 L-13 2 Q-18 -10 -13 -13 Q-10 -15 -5 -2 L-7 -26 Q-7 -32 -3 -32 Q1 -32 1 -26 L2 -10 L3 -31 Q4 -36 8 -34 L10 -11 L12 -28 Q14 -33 18 -29 L18 -7 L20 -19 Q24 -23 26 -17 L25 5 Q24 18 14 23 Z" stroke="#61536D" stroke-width="2" fill="#F6E9DE" stroke-linecap="round" stroke-linejoin="round" /></g><text x="132" y="95" fill="#61536D" font-size="17" font-family="sans-serif" text-anchor="middle">膝の少し下</text><text x="337" y="213" fill="#61536D" font-size="17" font-family="sans-serif" text-anchor="middle">足首へ</text><text x="240" y="273" fill="#61536D" font-size="18" font-family="sans-serif" text-anchor="middle">すねの外側 · 左右5回</text></svg>